<?xml version="1.0" encoding="UTF-8" standalone="no"?> <!-- Generator: Gravit.io --> <svg xmlns="http://www.w3.org/2000/svg" xmlns:xlink="http://www.w3.org/1999/xlink" style="isolation:isolate" viewBox="960.7 813.925 260 260" width="260pt" height="260pt"><g><path d=" M 1220.7 943.925 C 1220.7 1015.721 1162.498 1073.925 1090.701 1073.925 C 1018.903 1073.925 960.7 1015.721 960.7 943.925 C 960.7 872.127 1018.903 813.925 1090.701 813.925 C 1162.498 813.925 1220.7 872.127 1220.7 943.925 Z " fill="rgb(255,162,115)"></path><g style="mix-blend-mode:multiply;"><path d=" M 1159.189 855.993 C 1154.664 854.352 1149.892 853.172 1144.972 852.409 C 1129.741 850.044 1113.082 851.732 1097.859 856.621 L 1094.344 867.419 L 1094.946 857.599 C 1092.55 858.445 1090.192 859.363 1087.893 860.365 L 1087.792 871.777 L 1085.228 861.563 C 1070.507 868.464 1058.252 878.543 1051.667 890.814 C 1031.861 891.163 1021.655 903.584 1021.655 919.227 L 1021.655 979.804 L 1022.088 980.238 L 1026.595 984.737 L 1021.655 985.332 L 1021.655 995.167 L 1021.655 998.664 L 1003.853 998.664 C 1003.853 1003.79 1006.043 1008.398 1009.523 1011.641 L 1009.482 1011.679 L 1070.141 1072.301 C 1076.838 1073.364 1083.705 1073.926 1090.702 1073.926 C 1162.499 1073.926 1220.701 1015.722 1220.701 943.926 C 1220.701 933.629 1219.499 923.613 1217.236 914.009 L 1159.602 856.406 L 1159.189 855.993 Z " fill="rgb(209,209,209)"></path></g><path d=" M 1177.222 902.824 L 1161.428 901.989 L 1176.355 900.805 C 1173.431 895.068 1167.572 891.075 1160.744 890.813 C 1160.608 890.809 1160.467 890.807 1160.327 890.801 L 1159.747 890.801 L 1142.045 890.801 L 1052.521 890.797 C 1032.149 890.797 1021.655 903.358 1021.655 919.227 L 1021.655 980.204 L 1047.259 982.255 L 1021.655 985.332 L 1021.655 998.664 L 1003.853 998.664 C 1003.853 1008.477 1011.824 1016.433 1021.655 1016.433 L 1124.243 1016.433 C 1134.076 1016.433 1142.045 1008.477 1142.045 980.646 L 1142.045 942.308 L 1121.117 940.442 L 1142.045 937.639 L 1142.045 909.069 L 1178.342 909.069 C 1178.342 906.871 1177.935 904.774 1177.222 902.824 Z " fill="rgb(255,226,74)"></path><g style="mix-blend-mode:multiply;"><path d=" M 1021.654 1016.434 C 1011.823 1016.434 1003.852 1008.477 1003.852 998.664 L 1106.442 998.664 C 1106.442 1008.477 1114.413 1016.434 1124.243 1016.434 L 1021.654 1016.434 Z " fill="rgb(224,224,224)"></path></g><g style="mix-blend-mode:multiply;"><path d=" M 1117.344 1015.047 C 1112.156 1011.899 1109.958 1004.458 1111.421 995.167 L 1044.434 995.167 L 1026.633 995.167 L 1021.655 995.167 L 1021.655 998.664 L 1106.443 998.664 C 1106.443 1006.035 1110.942 1012.357 1117.344 1015.047 Z " fill="rgb(199,199,199)"></path></g><g style="mix-blend-mode:multiply;"><path d=" M 1161.428 901.989 L 1176.355 900.805 C 1173.431 895.068 1167.572 891.075 1160.744 890.813 C 1160.608 890.809 1160.467 890.807 1160.327 890.801 L 1159.747 890.801 C 1150.914 890.942 1142.045 899.952 1142.045 909.069 L 1178.342 909.069 C 1178.342 906.871 1177.935 904.774 1177.222 902.824 L 1161.428 901.989 Z " fill="rgb(224,224,224)"></path></g><path d=" M 1113.52 862.507 C 1128.384 856.947 1144.42 854.679 1159.916 856.245 C 1141.253 849.238 1118.26 850.069 1097.859 856.621 L 1094.344 867.419 L 1094.946 857.599 C 1092.55 858.445 1090.193 859.363 1087.893 860.364 L 1087.791 871.777 L 1085.228 861.563 C 1058.241 874.216 1039.488 897.538 1048.895 925.496 C 1054.496 911.616 1062.989 898.831 1073.644 888.203 C 1084.925 876.918 1098.64 868.063 1113.52 862.507 Z " fill="rgb(255,255,255)"></path><path d=" M 1159.916 856.245 C 1142.752 856.503 1127.837 858.973 1114.293 865.195 C 1100.551 871.469 1088.05 880.162 1077.437 890.746 C 1066.825 901.335 1058.117 913.814 1051.832 927.535 C 1051.7 927.914 1051.581 928.279 1051.463 928.644 C 1061.86 930.986 1074.296 926.001 1087.084 917.682 L 1070.601 910.501 L 1097.212 910.501 C 1123.123 890.754 1148.646 861.744 1159.916 856.245 Z " fill="rgb(191,191,191)"></path><path d=" M 1113.52 862.507 C 1098.64 868.063 1084.925 876.918 1073.644 888.203 C 1062.989 898.831 1054.496 911.616 1048.895 925.496 C 1048.559 926.333 1048.229 927.17 1047.914 928.011 C 1042.348 942.852 1040.073 958.857 1041.629 974.327 C 1042.305 967.535 1047.541 952.481 1051.764 948.728 C 1053.018 947.609 1045.878 945.703 1051.463 928.644 C 1051.582 928.278 1051.701 927.914 1051.832 927.535 C 1058.118 913.814 1066.826 901.335 1077.438 890.746 C 1088.05 880.161 1100.551 871.469 1114.293 865.195 C 1127.837 858.972 1142.752 856.503 1159.916 856.245 C 1144.42 854.679 1128.384 856.947 1113.52 862.507 Z " fill="rgb(86,107,138)"></path></g></svg> 