<?xml version="1.0" encoding="UTF-8" standalone="no"?> <!-- Generator: Gravit.io --> <svg xmlns="http://www.w3.org/2000/svg" xmlns:xlink="http://www.w3.org/1999/xlink" style="isolation:isolate" viewBox="975.177 1148.971 260 260" width="260pt" height="260pt"><g><path d=" M 1235.177 1278.971 C 1235.177 1350.768 1176.976 1408.971 1105.178 1408.971 C 1033.38 1408.971 975.177 1350.768 975.177 1278.971 C 975.177 1207.174 1033.38 1148.971 1105.178 1148.971 C 1176.976 1148.971 1235.177 1207.174 1235.177 1278.971 Z " fill="rgb(37,106,158)"></path><g style="mix-blend-mode:multiply;"><path d=" M 1234.185 1295.072 L 1159.147 1220.033 L 1159.139 1220.043 C 1159.121 1220.028 1159.113 1220.01 1159.099 1219.993 C 1157.241 1218.142 1154.138 1218.201 1152.212 1220.142 L 1143.413 1228.926 C 1142.539 1229.801 1142.07 1230.911 1141.96 1232.034 L 1137.007 1227.081 L 1136.742 1226.813 L 1109.281 1199.353 L 1108.344 1198.416 C 1107.565 1197.835 1106.619 1197.487 1105.597 1197.487 C 1102.972 1197.487 1100.824 1199.726 1100.824 1202.464 L 1100.824 1214.9 C 1100.824 1216.091 1101.25 1217.171 1101.927 1218.028 L 1102.786 1218.89 L 1110.879 1226.98 C 1109.314 1226.804 1107.725 1226.705 1106.113 1226.705 C 1094.978 1226.705 1084.844 1230.983 1077.256 1237.98 L 1059.14 1219.864 L 1059.092 1219.911 L 1058.736 1219.557 C 1056.807 1217.618 1053.699 1217.555 1051.856 1219.403 C 1049.992 1221.265 1050.063 1224.363 1051.992 1226.293 L 1052.352 1226.653 L 1052.348 1226.653 L 1070.956 1245.259 C 1066.271 1252.097 1063.524 1260.369 1063.524 1269.284 C 1063.524 1275.119 1065.057 1281.117 1067.39 1286.82 L 1050.936 1270.368 L 1049.541 1268.972 C 1048.742 1268.451 1047.782 1268.143 1046.748 1268.143 L 1034.317 1268.143 C 1031.587 1268.143 1029.346 1270.288 1029.346 1272.906 C 1029.346 1273.859 1029.648 1274.744 1030.156 1275.49 L 1031.441 1276.777 L 1081.289 1326.624 L 1081.559 1326.894 L 1083.983 1329.318 C 1083.124 1330.489 1082.611 1331.908 1082.611 1333.444 L 1082.611 1338.425 L 1080.121 1338.73 C 1077.479 1339.057 1075.582 1341.483 1075.906 1344.128 L 1075.957 1344.582 L 1075.975 1344.736 C 1076.302 1347.38 1078.735 1349.274 1081.374 1348.951 L 1082.611 1348.796 L 1082.611 1354.068 L 1080.121 1354.373 C 1077.479 1354.7 1075.582 1357.126 1075.906 1359.771 L 1075.931 1360.025 L 1075.975 1360.381 C 1076.081 1361.246 1076.429 1362.021 1076.923 1362.675 L 1077.937 1363.69 C 1077.937 1363.69 1100.185 1385.937 1122.122 1407.872 C 1180.647 1400.253 1226.941 1353.714 1234.185 1295.072 Z " fill="rgb(209,209,209)"></path></g><path d=" M 1106.112 1226.706 C 1082.599 1226.706 1063.523 1245.766 1063.523 1269.285 C 1063.523 1283.46 1072.552 1298.582 1080.138 1308.13 C 1086.625 1316.281 1084.901 1323.054 1085.581 1327.84 C 1086.865 1326.877 1088.402 1326.21 1090.143 1326.21 L 1122.082 1326.21 C 1123.822 1326.21 1125.359 1326.877 1126.646 1327.84 C 1127.323 1323.054 1125.591 1316.281 1132.078 1308.13 C 1139.669 1298.582 1148.7 1283.46 1148.7 1269.285 C 1148.7 1245.766 1129.622 1226.706 1106.112 1226.706 Z " fill="rgb(255,226,79)"></path><path d=" M 1113.154 1330.955 C 1113.078 1330.955 1113.001 1330.948 1112.925 1330.932 C 1112.168 1330.777 1111.66 1329.903 1111.783 1328.977 L 1115.437 1290.156 C 1115.486 1289.773 1115.643 1289.424 1115.879 1289.166 C 1121.395 1283.155 1123.635 1280.558 1123.635 1276.56 C 1123.635 1272.707 1121.074 1269.57 1117.925 1269.57 C 1116.014 1269.57 1114.237 1270.735 1113.172 1272.686 C 1112.914 1273.159 1112.481 1273.442 1112.015 1273.442 C 1111.552 1273.442 1111.123 1273.159 1110.867 1272.686 C 1109.803 1270.735 1108.026 1269.57 1106.112 1269.57 C 1104.2 1269.57 1102.423 1270.735 1101.357 1272.686 C 1101.103 1273.159 1100.669 1273.442 1100.207 1273.442 C 1099.742 1273.442 1099.31 1273.159 1099.052 1272.686 C 1097.989 1270.735 1096.21 1269.57 1094.298 1269.57 C 1091.151 1269.57 1088.589 1272.707 1088.589 1276.56 C 1088.589 1280.557 1090.828 1283.155 1096.344 1289.167 C 1096.581 1289.424 1096.737 1289.773 1096.789 1290.156 L 1100.44 1328.977 C 1100.565 1329.903 1100.053 1330.777 1099.298 1330.932 C 1098.543 1331.084 1097.83 1330.46 1097.705 1329.535 L 1094.134 1291.304 C 1088.937 1285.639 1085.815 1282.11 1085.815 1276.56 C 1085.815 1270.833 1089.622 1266.174 1094.298 1266.174 C 1096.529 1266.174 1098.637 1267.242 1100.205 1269.105 C 1101.773 1267.242 1103.881 1266.174 1106.112 1266.174 C 1108.343 1266.174 1110.452 1267.242 1112.015 1269.105 C 1113.586 1267.242 1115.691 1266.174 1117.925 1266.174 C 1122.601 1266.174 1126.408 1270.833 1126.408 1276.56 C 1126.408 1282.11 1123.288 1285.64 1118.089 1291.304 L 1114.518 1329.535 C 1114.405 1330.366 1113.818 1330.955 1113.154 1330.955 Z " fill="rgb(255,255,255)"></path><path d=" M 1136.249 1352.426 L 1136.249 1352.39 C 1135.92 1349.748 1133.494 1347.854 1130.85 1348.176 L 1129.614 1348.328 L 1129.614 1343.064 L 1132.1 1342.761 C 1134.746 1342.439 1136.642 1340.008 1136.314 1337.366 L 1136.273 1336.979 L 1136.249 1336.748 C 1135.92 1334.105 1133.494 1332.208 1130.85 1332.535 L 1129.572 1332.69 C 1129.176 1329.061 1125.96 1326.21 1122.082 1326.21 L 1090.144 1326.21 C 1085.998 1326.21 1082.61 1329.463 1082.61 1333.445 L 1082.61 1338.425 L 1080.12 1338.731 C 1077.478 1339.057 1075.582 1341.483 1075.905 1344.129 L 1075.957 1344.582 L 1075.975 1344.737 C 1076.302 1347.38 1078.734 1349.274 1081.374 1348.951 L 1082.61 1348.797 L 1082.61 1354.068 L 1080.12 1354.374 C 1077.478 1354.7 1075.582 1357.126 1075.905 1359.772 L 1075.931 1360.026 L 1075.975 1360.382 C 1076.302 1363.022 1078.734 1364.927 1081.374 1364.602 L 1083.028 1364.396 C 1083.947 1367.399 1086.734 1369.639 1090.144 1369.639 L 1122.082 1369.639 C 1126.226 1369.639 1129.614 1366.387 1129.614 1362.405 L 1129.614 1358.706 L 1132.1 1358.405 C 1134.746 1358.079 1136.642 1355.653 1136.314 1353.009 L 1136.249 1352.426 Z " fill="rgb(81,81,83)"></path><path d=" M 1130.85 1348.175 L 1129.615 1348.328 L 1082.611 1354.068 L 1080.121 1354.373 C 1077.479 1354.7 1075.582 1357.126 1075.906 1359.771 L 1075.931 1360.025 L 1082.611 1359.185 L 1136.249 1352.425 L 1136.249 1352.389 C 1135.92 1349.747 1133.495 1347.853 1130.85 1348.175 Z " fill="rgb(115,128,121)"></path><path d=" M 1136.249 1336.748 C 1135.92 1334.105 1133.494 1332.208 1130.85 1332.536 L 1129.572 1332.69 L 1082.61 1338.425 L 1080.12 1338.731 C 1077.478 1339.058 1075.582 1341.483 1075.905 1344.129 L 1075.957 1344.582 L 1129.614 1337.818 L 1136.273 1336.979 L 1136.249 1336.748 Z " fill="rgb(115,128,121)"></path><path d=" M 1110.363 1214.9 C 1110.363 1217.635 1108.213 1219.866 1105.596 1219.866 C 1102.971 1219.866 1100.823 1217.635 1100.823 1214.9 L 1100.823 1202.464 C 1100.823 1199.727 1102.971 1197.487 1105.596 1197.487 C 1108.213 1197.487 1110.363 1199.727 1110.363 1202.464 L 1110.363 1214.9 Z " fill="rgb(255,226,79)"></path><path d=" M 1046.748 1268.143 C 1049.489 1268.143 1051.715 1270.288 1051.715 1272.906 C 1051.715 1275.53 1049.489 1277.676 1046.748 1277.676 L 1034.316 1277.676 C 1031.587 1277.676 1029.346 1275.53 1029.346 1272.906 C 1029.346 1270.288 1031.587 1268.143 1034.316 1268.143 L 1046.748 1268.143 Z " fill="rgb(255,226,79)"></path><path d=" M 1067.532 1228.346 C 1069.465 1230.275 1069.524 1233.372 1067.678 1235.226 C 1065.816 1237.089 1062.716 1237.019 1060.788 1235.081 L 1051.991 1226.294 C 1050.062 1224.363 1049.991 1221.266 1051.855 1219.404 C 1053.698 1217.556 1056.806 1217.619 1058.735 1219.557 L 1067.532 1228.346 Z " fill="rgb(255,226,79)"></path><path d=" M 1150.16 1235.674 C 1148.226 1237.604 1145.122 1237.672 1143.277 1235.82 C 1141.415 1233.965 1141.474 1230.868 1143.412 1228.926 L 1152.212 1220.142 C 1154.138 1218.202 1157.24 1218.142 1159.098 1219.994 C 1160.943 1221.85 1160.882 1224.945 1158.952 1226.886 L 1150.16 1235.674 Z " fill="rgb(255,226,79)"></path><path d=" M 1163.604 1278.501 C 1160.875 1278.501 1158.635 1276.355 1158.635 1273.74 C 1158.635 1271.121 1160.875 1268.978 1163.604 1268.978 L 1176.039 1268.978 C 1178.775 1268.978 1181.008 1271.121 1181.008 1273.74 C 1181.008 1276.355 1178.775 1278.501 1176.039 1278.501 L 1163.604 1278.501 Z " fill="rgb(255,226,79)"></path></g></svg> 