<?xml version="1.0" encoding="UTF-8" standalone="no"?> <!-- Generator: Gravit.io --> <svg xmlns="http://www.w3.org/2000/svg" xmlns:xlink="http://www.w3.org/1999/xlink" style="isolation:isolate" viewBox="961 814 260 260" width="260pt" height="260pt"><g><path d=" M 961 944 C 961 872.203 1019.203 814 1091 814 C 1162.797 814 1221 872.203 1221 944 C 1221 1015.797 1162.797 1074 1091 1074 C 1019.203 1074 961 1015.797 961 944 Z " fill="rgb(75,195,212)"></path><g style="mix-blend-mode:multiply;"><path d=" M 1220.755 951.897 L 1159.16 890.12 L 1022.84 890.12 L 1022.84 1003.109 L 1093.697 1073.966 C 1161.609 1072.583 1216.725 1019.127 1220.755 951.897 Z " fill="rgb(209,209,209)"></path></g><path d=" M 1147.863 901.417 L 1159.16 890.12 L 1022.84 890.12 L 1034.136 901.417 L 1147.863 901.417 Z " fill="rgb(94,79,50)"></path><path d=" M 1034.137 901.417 L 1022.84 890.12 L 1022.84 1003.109 L 1034.137 991.811 L 1034.137 901.417 Z " fill="rgb(120,100,63)"></path><path d=" M 1147.863 901.417 L 1147.863 991.811 L 1159.16 1003.109 L 1159.16 890.12 L 1147.863 901.417 Z " fill="rgb(120,100,63)"></path><path d=" M 1034.137 991.811 L 1022.84 1003.109 L 1159.16 1003.109 L 1147.864 991.811 L 1034.137 991.811 Z " fill="rgb(148,124,78)"></path><path d=" M 1147.863 991.811 L 1034.136 991.811 L 1034.136 901.417 L 1147.863 901.417 L 1147.863 991.811 Z " fill="rgb(255,255,255)"></path><path d=" M 1060.137 915.124 C 1058.307 920.607 1053.94 924.975 1048.456 926.807 L 1047.941 926.978 L 1047.941 966.251 L 1048.456 966.423 C 1053.94 968.254 1058.307 972.622 1060.137 978.105 L 1060.309 978.62 L 1121.693 978.62 L 1121.864 978.105 C 1123.694 972.622 1128.062 968.254 1133.545 966.423 L 1134.06 966.251 L 1134.06 926.978 L 1133.545 926.807 C 1128.062 924.975 1123.694 920.607 1121.864 915.124 L 1121.693 914.609 L 1060.309 914.609 L 1060.137 915.124 Z M 1056.106 983.212 C 1055.655 981.141 1054.883 979.212 1053.812 977.472 C 1052.564 975.448 1050.979 973.81 1049.101 972.608 C 1047.33 971.477 1045.399 970.791 1043.349 970.567 L 1043.349 922.774 C 1045.418 922.323 1047.347 921.553 1049.089 920.48 C 1051.116 919.231 1052.751 917.646 1053.952 915.769 C 1055.085 913.999 1055.771 912.068 1055.994 910.018 L 1125.895 910.018 C 1126.347 912.089 1127.117 914.018 1128.189 915.758 C 1129.437 917.783 1131.022 919.419 1132.901 920.622 C 1134.671 921.753 1136.602 922.438 1138.652 922.663 L 1138.652 970.455 C 1136.583 970.906 1134.655 971.676 1132.911 972.749 C 1130.886 973.998 1129.249 975.583 1128.048 977.461 C 1126.916 979.23 1126.231 981.162 1126.006 983.212 L 1056.106 983.212 Z " fill="rgb(105,224,177)"></path><g style="mix-blend-mode:multiply;"><path d=" M 1114.014 928.969 L 1067.988 928.969 L 1067.988 920.181 L 1114.014 920.181 L 1114.014 928.969 Z " fill="rgb(219,219,219)"></path></g><g style="mix-blend-mode:multiply;"><path d=" M 1127.717 938.508 L 1054.284 938.508 L 1054.284 934.93 L 1127.717 934.93 L 1127.717 938.508 Z " fill="rgb(219,219,219)"></path></g><g style="mix-blend-mode:multiply;"><path d=" M 1127.717 946.614 L 1054.284 946.614 L 1054.284 943.037 L 1127.717 943.037 L 1127.717 946.614 Z " fill="rgb(219,219,219)"></path></g><g style="mix-blend-mode:multiply;"><path d=" M 1114.014 954.72 L 1067.988 954.72 L 1067.988 951.143 L 1114.014 951.143 L 1114.014 954.72 Z " fill="rgb(219,219,219)"></path></g><g style="mix-blend-mode:multiply;"><path d=" M 1114.014 962.826 L 1067.988 962.826 L 1067.988 959.249 L 1114.014 959.249 L 1114.014 962.826 Z " fill="rgb(219,219,219)"></path></g><g style="mix-blend-mode:multiply;"><path d=" M 1114.014 970.932 L 1067.988 970.932 L 1067.988 967.355 L 1114.014 967.355 L 1114.014 970.932 Z " fill="rgb(219,219,219)"></path></g><path d=" M 1121.023 975.313 C 1118.682 976.884 1116.31 978.376 1113.913 979.787 C 1120.415 990.974 1125.089 1004.112 1127.041 1018.593 C 1129.525 1015.784 1131.909 1012.805 1134.173 1009.663 C 1137.334 1010.883 1140.482 1012.163 1143.616 1013.502 C 1141.009 997.473 1135.484 982.881 1127.944 970.366 C 1125.669 972.093 1123.362 973.743 1121.023 975.313 Z " fill="rgb(156,227,252)"></path><g style="mix-blend-mode:multiply;"><path d=" M 1121.023 975.313 C 1126.992 985.431 1131.559 997.004 1134.173 1009.663 C 1137.334 1010.883 1140.482 1012.163 1143.616 1013.502 C 1141.009 997.473 1135.484 982.881 1127.944 970.366 C 1125.669 972.093 1123.362 973.743 1121.023 975.313 Z " fill="rgb(232,232,232)"></path></g><path d=" M 1119.732 977.803 C 1116.942 977.525 1114.157 977.299 1111.373 977.129 C 1110.997 991.386 1106.748 1004.655 1099.729 1015.686 C 1103.1 1015.57 1106.503 1015.276 1109.919 1014.801 C 1111.308 1018.123 1112.496 1021.629 1113.448 1025.296 C 1122.14 1011.889 1127.408 995.885 1128.091 978.802 C 1125.307 978.415 1122.517 978.083 1119.732 977.803 Z " fill="rgb(156,227,252)"></path><g style="mix-blend-mode:multiply;"><path d=" M 1119.732 977.803 C 1119.301 991.169 1115.797 1003.794 1109.919 1014.801 C 1111.308 1018.123 1112.496 1021.629 1113.448 1025.296 C 1122.14 1011.889 1127.408 995.885 1128.091 978.802 C 1125.307 978.415 1122.517 978.083 1119.732 977.803 Z " fill="rgb(232,232,232)"></path></g><path d=" M 1121.672 957.196 C 1114.399 957.196 1108.501 963.092 1108.501 970.366 C 1108.501 977.639 1114.399 983.536 1121.672 983.536 C 1128.943 983.536 1134.843 977.639 1134.843 970.366 C 1134.843 963.092 1128.943 957.196 1121.672 957.196 Z " fill="rgb(250,82,80)"></path><path d=" M 1121.672 983.536 C 1114.399 983.536 1108.501 977.64 1108.501 970.366 C 1108.501 963.093 1114.399 957.196 1121.672 957.196 C 1128.943 957.196 1134.843 963.093 1134.843 970.366 C 1134.843 977.64 1128.943 983.536 1121.672 983.536 Z M 1121.672 954.618 C 1112.975 954.618 1105.925 961.669 1105.925 970.366 C 1105.925 979.063 1112.975 986.113 1121.672 986.113 C 1130.369 986.113 1137.419 979.063 1137.419 970.366 C 1137.419 961.669 1130.369 954.618 1121.672 954.618 Z " fill="rgb(255,255,255)"></path><path d=" M 1121.672 986.112 C 1112.975 986.112 1105.925 979.062 1105.925 970.365 C 1105.925 961.668 1112.975 954.617 1121.672 954.617 C 1130.369 954.617 1137.419 961.668 1137.419 970.365 C 1137.419 979.062 1130.369 986.112 1121.672 986.112 Z M 1139.134 972.88 L 1143.026 970.365 L 1139.134 967.85 L 1142.165 964.347 L 1137.724 963.036 L 1139.639 958.819 L 1135.005 958.813 L 1135.657 954.227 L 1131.211 955.523 L 1130.545 950.937 L 1126.644 953.435 L 1124.709 949.226 L 1121.672 952.725 L 1118.635 949.225 L 1116.7 953.434 L 1112.8 950.936 L 1112.134 955.522 L 1107.687 954.227 L 1108.338 958.811 L 1103.706 958.818 L 1105.62 963.035 L 1101.179 964.348 L 1104.21 967.85 L 1100.318 970.365 L 1104.21 972.88 L 1101.179 976.383 L 1105.62 977.693 L 1103.706 981.912 L 1108.338 981.917 L 1107.687 986.502 L 1112.134 985.207 L 1112.795 989.793 L 1116.698 987.295 L 1118.632 991.505 L 1121.672 988.005 L 1124.709 991.506 L 1126.644 987.295 L 1130.545 989.793 L 1131.207 985.209 L 1135.653 986.504 L 1135.002 981.917 L 1139.639 981.913 L 1137.724 977.694 L 1142.165 976.383 L 1139.134 972.88 Z " fill="rgb(250,82,80)"></path><g style="mix-blend-mode:multiply;"><path d=" M 1134.843 970.366 C 1134.843 977.639 1128.944 983.536 1121.672 983.536 L 1121.672 986.113 C 1130.369 986.113 1137.419 979.063 1137.419 970.366 C 1137.419 961.669 1130.369 954.618 1121.672 954.618 L 1121.672 957.196 C 1128.944 957.196 1134.843 963.093 1134.843 970.366 Z " fill="rgb(222,222,222)"></path></g><g style="mix-blend-mode:multiply;"><path d=" M 1139.134 972.88 L 1143.027 970.365 L 1139.134 967.85 L 1142.165 964.347 L 1137.724 963.036 L 1139.639 958.818 L 1135.005 958.813 L 1135.657 954.227 L 1131.211 955.523 L 1130.545 950.937 L 1126.644 953.435 L 1124.709 949.226 L 1121.672 952.725 L 1121.672 954.617 C 1130.369 954.617 1137.419 961.668 1137.419 970.365 C 1137.419 979.062 1130.369 986.112 1121.672 986.112 L 1121.672 988.005 L 1124.709 991.505 L 1126.644 987.295 L 1130.545 989.793 L 1131.207 985.209 L 1135.654 986.504 L 1135.002 981.917 L 1139.639 981.913 L 1137.724 977.694 L 1142.165 976.383 L 1139.134 972.88 Z " fill="rgb(222,222,222)"></path></g><g style="mix-blend-mode:multiply;"><path d=" M 1134.843 970.366 C 1134.843 963.093 1128.944 957.196 1121.672 957.196 L 1121.672 983.536 C 1128.944 983.536 1134.843 977.639 1134.843 970.366 Z " fill="rgb(222,222,222)"></path></g></g></svg> 