<?xml version="1.0" encoding="UTF-8" standalone="no"?> <!-- Generator: Gravit.io --> <svg xmlns="http://www.w3.org/2000/svg" xmlns:xlink="http://www.w3.org/1999/xlink" style="isolation:isolate" viewBox="150.118 2497.972 260 260" width="260pt" height="260pt"><g><path d=" M 410.118 2627.972 C 410.118 2699.768 351.915 2757.972 280.118 2757.972 C 208.321 2757.972 150.118 2699.768 150.118 2627.972 C 150.118 2556.174 208.321 2497.972 280.118 2497.972 C 351.915 2497.972 410.118 2556.174 410.118 2627.972 Z " fill="rgb(37,106,158)"></path><g style="mix-blend-mode:multiply;"><path d=" M 409.153 2643.831 L 320.344 2553.783 L 318.36 2551.764 L 318.214 2551.615 C 317.868 2551.348 317.52 2551.105 317.168 2550.907 C 317.168 2550.907 317.164 2550.907 317.162 2550.905 C 310.996 2547.483 295.978 2550.871 282.245 2559.643 C 282.242 2559.637 282.24 2559.635 282.238 2559.633 C 281.866 2559.869 281.494 2560.105 281.129 2560.349 C 279.692 2561.305 278.266 2562.318 276.872 2563.392 C 275.271 2564.628 273.704 2565.938 272.195 2567.327 L 272.176 2567.344 L 272.176 2567.346 C 267.699 2571.466 263.724 2576.238 260.731 2581.605 C 256.951 2588.378 252.713 2598.471 248.948 2609.683 C 234.251 2610.375 221.18 2617.21 214.413 2629.338 C 207.68 2641.393 208.708 2655.984 215.736 2668.771 L 218.562 2671.643 L 238.621 2692.033 L 238.622 2692.035 L 301.913 2756.143 C 358.208 2746.639 402.203 2700.956 409.153 2643.831 Z " fill="rgb(209,209,209)"></path></g><path d=" M 214.413 2629.338 C 206.991 2642.635 208.975 2659.02 218.075 2672.661 C 218.826 2671.005 219.656 2669.351 220.571 2667.712 C 232.006 2647.227 246.605 2646.253 259.837 2653.612 L 280.118 2617.284 C 255.262 2603.456 225.846 2608.856 214.413 2629.338 Z " fill="rgb(232,85,51)"></path><path d=" M 280.118 2617.284 L 259.837 2653.612 C 273.069 2660.973 279.921 2673.881 268.486 2694.364 C 267.574 2696.005 266.6 2697.577 265.585 2699.091 C 281.992 2699.637 296.995 2692.702 304.419 2679.405 C 315.853 2658.918 304.972 2631.105 280.118 2617.284 Z " fill="rgb(207,77,48)"></path><path d=" M 317.168 2550.907 C 310.838 2547.387 295.159 2551.04 281.129 2560.348 C 279.692 2561.304 278.267 2562.318 276.872 2563.391 C 270.5 2568.302 264.738 2574.425 260.731 2581.605 C 256.949 2588.378 252.712 2598.472 248.945 2609.686 C 248.945 2609.684 248.946 2609.682 248.946 2609.68 C 234.251 2610.376 221.181 2617.212 214.413 2629.338 C 206.991 2642.635 208.975 2659.019 218.075 2672.661 C 218.826 2671.005 219.656 2669.35 220.571 2667.712 C 226.172 2657.678 232.532 2652.337 239.117 2650.348 C 237.241 2665.147 238.302 2677.168 244.702 2680.728 C 251.103 2684.289 261.902 2678.864 273.519 2669.485 C 275.292 2676.122 274.087 2684.333 268.486 2694.364 C 267.574 2696.005 266.601 2697.577 265.585 2699.091 C 281.992 2699.636 296.995 2692.702 304.419 2679.405 C 311.188 2667.277 310.134 2652.585 302.994 2639.742 C 302.993 2639.744 302.992 2639.744 302.992 2639.746 C 310.56 2630.649 316.929 2621.743 320.71 2614.97 C 324.718 2607.788 326.903 2599.677 327.731 2591.682 C 327.911 2589.935 328.028 2588.193 328.086 2586.47 C 328.636 2569.662 323.497 2554.429 317.168 2550.907 Z " fill="rgb(250,89,87)"></path><g style="mix-blend-mode:multiply;"><path d=" M 248.946 2609.681 C 234.251 2610.376 221.181 2617.212 214.413 2629.338 C 206.991 2642.635 208.975 2659.02 218.074 2672.661 C 218.825 2671.005 219.655 2669.351 220.571 2667.712 C 226.172 2657.679 232.531 2652.337 239.117 2650.349 C 240.73 2637.642 244.51 2622.888 248.946 2609.681 Z " fill="rgb(232,232,232)"></path></g><g style="mix-blend-mode:multiply;"><path d=" M 273.518 2669.485 C 275.291 2676.122 274.086 2684.333 268.486 2694.364 C 267.573 2696.005 266.6 2697.577 265.584 2699.09 C 281.991 2699.636 296.995 2692.702 304.418 2679.405 C 311.187 2667.277 310.133 2652.585 302.993 2639.742 C 294.077 2650.458 283.497 2661.429 273.518 2669.485 Z " fill="rgb(209,209,209)"></path></g><g style="mix-blend-mode:multiply;"><path d=" M 327.73 2591.683 C 327.911 2589.936 328.028 2588.194 328.086 2586.47 C 328.636 2569.662 323.496 2554.43 317.167 2550.908 L 244.702 2680.729 C 261.266 2689.943 307.291 2639.009 320.709 2614.971 C 324.717 2607.788 326.903 2599.677 327.73 2591.683 Z " fill="rgb(232,232,232)"></path></g><path d=" M 302.458 2577.262 C 293.969 2572.545 286.932 2566.375 282.239 2559.633 C 281.867 2559.869 281.494 2560.106 281.129 2560.349 C 279.691 2561.305 278.267 2562.319 276.871 2563.392 C 275.263 2564.632 273.689 2565.951 272.177 2567.344 C 278.195 2575.308 286.599 2582.475 296.479 2587.972 C 306.359 2593.468 316.885 2596.832 326.835 2597.749 C 327.227 2595.732 327.52 2593.702 327.73 2591.683 C 327.91 2589.936 328.028 2588.194 328.085 2586.47 C 328.1 2586.032 328.107 2585.591 328.112 2585.149 C 319.898 2584.715 310.944 2581.985 302.458 2577.262 Z " fill="rgb(255,171,77)"></path><g style="mix-blend-mode:multiply;"><path d=" M 327.73 2591.683 C 327.911 2589.936 328.028 2588.194 328.086 2586.47 C 328.099 2586.032 328.108 2585.591 328.113 2585.149 C 319.897 2584.715 310.943 2581.985 302.458 2577.262 L 296.478 2587.972 C 306.359 2593.468 316.885 2596.832 326.835 2597.749 C 327.227 2595.732 327.521 2593.703 327.73 2591.683 Z " fill="rgb(232,232,232)"></path></g><path d=" M 290.959 2597.857 C 282.197 2592.982 271.133 2596.124 266.249 2604.872 C 261.368 2613.618 264.511 2624.665 273.276 2629.541 C 282.04 2634.412 293.103 2631.272 297.986 2622.524 C 302.87 2613.776 299.724 2602.731 290.959 2597.857 Z " fill="rgb(78,90,90)"></path><g style="mix-blend-mode:multiply;"><path d=" M 290.959 2597.857 L 273.276 2629.541 C 282.04 2634.412 293.103 2631.272 297.986 2622.524 C 302.87 2613.776 299.724 2602.731 290.959 2597.857 Z " fill="rgb(232,232,232)"></path></g><path d=" M 288.56 2602.16 L 288.557 2602.16 C 282.172 2598.607 274.116 2600.898 270.558 2607.27 C 267.003 2613.639 269.293 2621.683 275.676 2625.234 C 282.061 2628.787 290.118 2626.499 293.675 2620.13 C 297.235 2613.755 294.94 2605.711 288.56 2602.16 Z " fill="rgb(98,211,252)"></path><g style="mix-blend-mode:multiply;"><path d=" M 288.56 2602.16 L 288.557 2602.16 L 275.676 2625.234 C 282.061 2628.787 290.118 2626.499 293.675 2620.13 C 297.235 2613.755 294.94 2605.711 288.56 2602.16 Z " fill="rgb(232,232,232)"></path></g><path d=" M 273.531 2610.249 C 273.316 2610.249 273.099 2610.196 272.898 2610.083 C 272.26 2609.728 272.03 2608.925 272.387 2608.288 C 275.376 2602.934 282.174 2601.002 287.537 2603.987 C 288.175 2604.341 288.406 2605.145 288.048 2605.78 C 287.694 2606.417 286.885 2606.647 286.251 2606.294 C 282.156 2604.02 276.975 2605.491 274.699 2609.571 C 274.454 2610.01 273.997 2610.254 273.531 2610.249 Z " fill="rgb(255,255,255)"></path></g></svg> 