<?xml version="1.0" encoding="UTF-8" standalone="no"?> <!-- Generator: Gravit.io --> <svg xmlns="http://www.w3.org/2000/svg" xmlns:xlink="http://www.w3.org/1999/xlink" style="isolation:isolate" viewBox="325.964 32.279 136.6 103.2" width="136.6pt" height="103.2pt"><g><path d=" M 462.564 135.479 L 325.964 135.479 L 325.964 32.279 L 462.564 32.279 L 462.564 135.479 Z " fill="rgb(243,245,229)"></path><g><path d=" M 384.188 106.654 C 384.625 105.256 385.062 103.683 385.673 102.547 C 386.285 101.411 387.595 99.402 389.43 98.004 C 391.265 96.605 394.848 93.809 394.848 93.809 C 394.848 93.809 393.363 92.674 391.799 91.634 C 390.237 90.596 389.081 88.741 388.12 87.343 C 387.159 85.945 387.334 84.285 387.42 83.149 C 387.508 82.013 388.033 79.479 389.328 78.052 C 390.623 76.625 392.314 75.372 393.625 74.586 C 394.935 73.8 396.334 72.402 397.819 71.178 C 399.304 69.955 401.664 67.858 402.275 66.547 C 402.887 65.237 403.585 63.489 404.11 61.304 C 404.194 60.957 404.265 60.656 404.332 60.377 L 404.77 59.939 L 423.826 78.995 C 421.585 64.642 409.17 53.66 394.189 53.66 C 377.62 53.66 364.189 67.091 364.189 83.66 C 364.189 98.596 375.106 110.979 389.395 113.274 L 383.902 107.78 C 383.981 107.402 384.076 107.014 384.188 106.654 Z " fill="rgb(184,196,102)"></path><path d=" M 424.189 83.66 C 424.189 82.073 424.064 80.516 423.826 78.995 L 404.77 59.939 L 404.332 60.377 C 404.265 60.656 404.194 60.957 404.109 61.305 C 403.585 63.489 402.886 65.237 402.275 66.547 C 401.664 67.858 399.304 69.955 397.819 71.179 C 396.333 72.402 394.934 73.8 393.624 74.586 C 392.314 75.372 390.622 76.625 389.328 78.053 C 388.032 79.479 387.508 82.014 387.42 83.149 C 387.333 84.285 387.159 85.945 388.119 87.344 C 389.081 88.742 390.237 90.596 391.799 91.635 C 393.362 92.674 394.847 93.809 394.847 93.809 C 394.847 93.809 391.265 96.605 389.429 98.004 C 387.595 99.402 386.285 101.411 385.672 102.547 C 385.061 103.683 384.624 105.256 384.188 106.654 C 384.076 107.014 383.981 107.402 383.902 107.781 L 389.395 113.274 C 390.957 113.525 392.557 113.66 394.189 113.66 C 410.758 113.66 424.189 100.229 424.189 83.66 Z " fill="rgb(184,196,102)"></path><g style="mix-blend-mode:multiply;"><path d=" M 424.189 83.66 C 424.189 82.073 424.064 80.516 423.826 78.995 L 404.77 59.939 L 404.332 60.377 C 404.265 60.656 404.194 60.957 404.109 61.305 C 403.585 63.489 402.886 65.237 402.275 66.547 C 401.664 67.858 399.304 69.955 397.819 71.179 C 396.333 72.402 394.934 73.8 393.624 74.586 C 392.314 75.372 390.622 76.625 389.328 78.053 C 388.032 79.479 387.508 82.014 387.42 83.149 C 387.333 84.285 387.159 85.945 388.119 87.344 C 389.081 88.742 390.237 90.596 391.799 91.635 C 393.362 92.674 394.847 93.809 394.847 93.809 C 394.847 93.809 391.265 96.605 389.429 98.004 C 387.595 99.402 386.285 101.411 385.672 102.547 C 385.061 103.683 384.624 105.256 384.188 106.654 C 384.076 107.014 383.981 107.402 383.902 107.781 L 389.395 113.274 C 390.957 113.525 392.557 113.66 394.189 113.66 C 410.758 113.66 424.189 100.229 424.189 83.66 Z " fill="rgb(209,209,209)"></path></g><path d=" M 404.01 61.027 L 385.057 61.027 L 385.057 59.913 L 404.01 59.913 L 404.01 61.027 Z " fill="rgb(170,170,170)"></path><path d=" M 403.881 64.272 L 384.927 64.272 L 384.927 63.158 L 403.881 63.158 L 403.881 64.272 Z " fill="rgb(170,170,170)"></path><path d=" M 402.192 67.063 L 386.614 67.063 L 386.614 65.949 L 402.192 65.949 L 402.192 67.063 Z " fill="rgb(170,170,170)"></path><path d=" M 400.343 69.53 L 388.887 69.53 L 388.887 68.416 L 400.343 68.416 L 400.343 69.53 Z " fill="rgb(170,170,170)"></path><path d=" M 397.552 71.802 L 391.645 71.802 L 391.645 70.688 L 397.552 70.688 L 397.552 71.802 Z " fill="rgb(170,170,170)"></path><path d=" M 404.983 60.47 C 404.983 61.151 404.431 61.703 403.75 61.703 C 403.069 61.703 402.517 61.151 402.517 60.47 C 402.517 59.789 403.069 59.237 403.75 59.237 C 404.431 59.237 404.983 59.789 404.983 60.47 Z " fill="rgb(37,106,158)"></path><path d=" M 404.465 63.715 C 404.465 64.396 403.912 64.948 403.232 64.948 C 402.55 64.948 401.998 64.396 401.998 63.715 C 401.998 63.034 402.55 62.482 403.232 62.482 C 403.912 62.482 404.465 63.034 404.465 63.715 Z " fill="rgb(37,106,158)"></path><path d=" M 403.207 66.506 C 403.207 67.187 402.654 67.739 401.974 67.739 C 401.292 67.739 400.74 67.187 400.74 66.506 C 400.74 65.825 401.292 65.273 401.974 65.273 C 402.654 65.273 403.207 65.825 403.207 66.506 Z " fill="rgb(37,106,158)"></path><path d=" M 401.349 68.973 C 401.349 69.654 400.797 70.206 400.116 70.206 C 399.435 70.206 398.882 69.654 398.882 68.973 C 398.882 68.292 399.435 67.74 400.116 67.74 C 400.797 67.74 401.349 68.292 401.349 68.973 Z " fill="rgb(37,106,158)"></path><path d=" M 398.655 71.245 C 398.655 71.926 398.102 72.478 397.422 72.478 C 396.74 72.478 396.188 71.926 396.188 71.245 C 396.188 70.564 396.74 70.012 397.422 70.012 C 398.102 70.012 398.655 70.564 398.655 71.245 Z " fill="rgb(37,106,158)"></path><path d=" M 403.945 106.293 L 384.991 106.293 L 384.991 107.407 L 403.945 107.407 L 403.945 106.293 Z " fill="rgb(170,170,170)"></path><path d=" M 403.815 103.048 L 384.862 103.048 L 384.862 104.162 L 403.815 104.162 L 403.815 103.048 Z " fill="rgb(170,170,170)"></path><path d=" M 402.128 100.257 L 386.55 100.257 L 386.55 101.371 L 402.128 101.371 L 402.128 100.257 Z " fill="rgb(170,170,170)"></path><path d=" M 400.277 97.791 L 388.821 97.791 L 388.821 98.905 L 400.277 98.905 L 400.277 97.791 Z " fill="rgb(170,170,170)"></path><path d=" M 397.486 95.519 L 391.58 95.519 L 391.58 96.633 L 397.486 96.633 L 397.486 95.519 Z " fill="rgb(170,170,170)"></path><path d=" M 402.022 86.047 L 387.465 86.047 L 387.465 87.161 L 402.022 87.161 L 402.022 86.047 Z " fill="rgb(170,170,170)"></path><path d=" M 401.779 83.069 L 386.979 83.069 L 386.979 84.183 L 401.779 84.183 L 401.779 83.069 Z " fill="rgb(170,170,170)"></path><path d=" M 401.893 80.132 L 387.321 80.132 L 387.321 81.246 L 401.893 81.246 L 401.893 80.132 Z " fill="rgb(170,170,170)"></path><path d=" M 400.286 77.495 L 388.829 77.495 L 388.829 78.61 L 400.286 78.61 L 400.286 77.495 Z " fill="rgb(170,170,170)"></path><path d=" M 397.495 75.15 L 391.588 75.15 L 391.588 76.264 L 397.495 76.264 L 397.495 75.15 Z " fill="rgb(170,170,170)"></path><path d=" M 400.359 89.847 L 388.902 89.847 L 388.902 88.733 L 400.359 88.733 L 400.359 89.847 Z " fill="rgb(170,170,170)"></path><path d=" M 397.567 92.192 L 391.661 92.192 L 391.661 91.078 L 397.567 91.078 L 397.567 92.192 Z " fill="rgb(170,170,170)"></path><path d=" M 402.834 86.604 C 402.834 85.923 402.281 85.371 401.601 85.371 C 400.919 85.371 400.367 85.923 400.367 86.604 C 400.367 87.285 400.919 87.837 401.601 87.837 C 402.281 87.837 402.834 87.285 402.834 86.604 Z " fill="rgb(250,89,87)"></path><path d=" M 402.972 83.626 C 402.972 82.945 402.419 82.393 401.739 82.393 C 401.058 82.393 400.505 82.945 400.505 83.626 C 400.505 84.307 401.058 84.859 401.739 84.859 C 402.419 84.859 402.972 84.307 402.972 83.626 Z " fill="rgb(250,89,87)"></path><path d=" M 402.444 80.689 C 402.444 80.008 401.891 79.456 401.211 79.456 C 400.529 79.456 399.977 80.008 399.977 80.689 C 399.977 81.37 400.529 81.922 401.211 81.922 C 401.891 81.922 402.444 81.37 402.444 80.689 Z " fill="rgb(250,89,87)"></path><path d=" M 401 78.053 C 401 77.372 400.447 76.82 399.767 76.82 C 399.086 76.82 398.533 77.372 398.533 78.053 C 398.533 78.734 399.086 79.286 399.767 79.286 C 400.447 79.286 401 78.734 401 78.053 Z " fill="rgb(250,89,87)"></path><path d=" M 401.073 89.29 C 401.073 89.971 400.52 90.523 399.84 90.523 C 399.158 90.523 398.606 89.971 398.606 89.29 C 398.606 88.609 399.158 88.057 399.84 88.057 C 400.52 88.057 401.073 88.609 401.073 89.29 Z " fill="rgb(250,89,87)"></path><path d=" M 398.671 91.635 C 398.671 92.316 398.119 92.868 397.439 92.868 C 396.757 92.868 396.205 92.316 396.205 91.635 C 396.205 90.954 396.757 90.402 397.439 90.402 C 398.119 90.402 398.671 90.954 398.671 91.635 Z " fill="rgb(250,89,87)"></path><path d=" M 393.356 93.909 C 393.356 94.59 393.909 95.142 394.589 95.142 C 395.271 95.142 395.823 94.59 395.823 93.909 C 395.823 93.228 395.271 92.676 394.589 92.676 C 393.909 92.676 393.356 93.228 393.356 93.909 Z " fill="rgb(37,106,158)"></path><path d=" M 390.484 96.076 C 390.484 96.757 391.037 97.309 391.717 97.309 C 392.399 97.309 392.951 96.757 392.951 96.076 C 392.951 95.395 392.399 94.843 391.717 94.843 C 391.037 94.843 390.484 95.395 390.484 96.076 Z " fill="rgb(250,89,87)"></path><path d=" M 387.872 98.348 C 387.872 99.029 388.424 99.581 389.105 99.581 C 389.786 99.581 390.339 99.029 390.339 98.348 C 390.339 97.667 389.786 97.115 389.105 97.115 C 388.424 97.115 387.872 97.667 387.872 98.348 Z " fill="rgb(250,89,87)"></path><path d=" M 385.373 100.814 C 385.373 101.495 385.925 102.047 386.606 102.047 C 387.287 102.047 387.84 101.495 387.84 100.814 C 387.84 100.133 387.287 99.581 386.606 99.581 C 385.925 99.581 385.373 100.133 385.373 100.814 Z " fill="rgb(250,89,87)"></path><path d=" M 383.831 103.606 C 383.831 104.287 384.384 104.839 385.064 104.839 C 385.746 104.839 386.298 104.287 386.298 103.606 C 386.298 102.925 385.746 102.373 385.064 102.373 C 384.384 102.373 383.831 102.925 383.831 103.606 Z " fill="rgb(250,89,87)"></path><path d=" M 383.394 106.851 C 383.394 107.532 383.946 108.084 384.626 108.084 C 385.308 108.084 385.86 107.532 385.86 106.851 C 385.86 106.17 385.308 105.618 384.626 105.618 C 383.946 105.618 383.394 106.17 383.394 106.851 Z " fill="rgb(250,89,87)"></path><path d=" M 398.599 75.707 C 398.599 75.026 398.046 74.474 397.366 74.474 C 396.684 74.474 396.132 75.026 396.132 75.707 C 396.132 76.388 396.684 76.94 397.366 76.94 C 398.046 76.94 398.599 76.388 398.599 75.707 Z " fill="rgb(250,89,87)"></path><path d=" M 393.422 73.411 C 393.422 72.73 393.974 72.178 394.655 72.178 C 395.336 72.178 395.889 72.73 395.889 73.411 C 395.889 74.092 395.336 74.644 394.655 74.644 C 393.974 74.644 393.422 74.092 393.422 73.411 Z " fill="rgb(250,89,87)"></path><path d=" M 390.55 71.245 C 390.55 70.564 391.102 70.012 391.783 70.012 C 392.464 70.012 393.016 70.564 393.016 71.245 C 393.016 71.926 392.464 72.478 391.783 72.478 C 391.102 72.478 390.55 71.926 390.55 71.245 Z " fill="rgb(250,89,87)"></path><path d=" M 387.937 68.973 C 387.937 68.292 388.49 67.74 389.17 67.74 C 389.852 67.74 390.404 68.292 390.404 68.973 C 390.404 69.654 389.852 70.206 389.17 70.206 C 388.49 70.206 387.937 69.654 387.937 68.973 Z " fill="rgb(250,89,87)"></path><path d=" M 385.438 66.506 C 385.438 65.825 385.991 65.273 386.671 65.273 C 387.353 65.273 387.905 65.825 387.905 66.506 C 387.905 67.187 387.353 67.739 386.671 67.739 C 385.991 67.739 385.438 67.187 385.438 66.506 Z " fill="rgb(250,89,87)"></path><path d=" M 383.897 63.715 C 383.897 63.034 384.449 62.482 385.13 62.482 C 385.811 62.482 386.363 63.034 386.363 63.715 C 386.363 64.396 385.811 64.948 385.13 64.948 C 384.449 64.948 383.897 64.396 383.897 63.715 Z " fill="rgb(250,89,87)"></path><path d=" M 383.458 60.47 C 383.458 59.789 384.01 59.237 384.691 59.237 C 385.372 59.237 385.925 59.789 385.925 60.47 C 385.925 61.151 385.372 61.703 384.691 61.703 C 384.01 61.703 383.458 61.151 383.458 60.47 Z " fill="rgb(250,89,87)"></path><path d=" M 390.492 75.707 C 390.492 76.388 391.045 76.94 391.725 76.94 C 392.407 76.94 392.959 76.388 392.959 75.707 C 392.959 75.026 392.407 74.474 391.725 74.474 C 391.045 74.474 390.492 75.026 390.492 75.707 Z " fill="rgb(37,106,158)"></path><path d=" M 388.094 78.053 C 388.094 78.734 388.646 79.286 389.327 79.286 C 390.008 79.286 390.561 78.734 390.561 78.053 C 390.561 77.372 390.008 76.82 389.327 76.82 C 388.646 76.82 388.094 77.372 388.094 78.053 Z " fill="rgb(37,106,158)"></path><path d=" M 386.525 80.689 C 386.525 81.37 387.077 81.922 387.758 81.922 C 388.439 81.922 388.991 81.37 388.991 80.689 C 388.991 80.008 388.439 79.456 387.758 79.456 C 387.077 79.456 386.525 80.008 386.525 80.689 Z " fill="rgb(37,106,158)"></path><path d=" M 386.055 83.626 C 386.055 84.307 386.607 84.859 387.288 84.859 C 387.969 84.859 388.522 84.307 388.522 83.626 C 388.522 82.945 387.969 82.393 387.288 82.393 C 386.607 82.393 386.055 82.945 386.055 83.626 Z " fill="rgb(37,106,158)"></path><path d=" M 386.688 86.726 C 386.688 87.407 387.24 87.959 387.921 87.959 C 388.602 87.959 389.155 87.407 389.155 86.726 C 389.155 86.045 388.602 85.493 387.921 85.493 C 387.24 85.493 386.688 86.045 386.688 86.726 Z " fill="rgb(37,106,158)"></path><path d=" M 390.565 91.635 C 390.565 90.954 391.118 90.402 391.798 90.402 C 392.48 90.402 393.032 90.954 393.032 91.635 C 393.032 92.316 392.48 92.868 391.798 92.868 C 391.118 92.868 390.565 92.316 390.565 91.635 Z " fill="rgb(37,106,158)"></path><path d=" M 388.167 89.29 C 388.167 88.609 388.719 88.057 389.4 88.057 C 390.081 88.057 390.633 88.609 390.633 89.29 C 390.633 89.971 390.081 90.523 389.4 90.523 C 388.719 90.523 388.167 89.971 388.167 89.29 Z " fill="rgb(37,106,158)"></path><path d=" M 404.919 106.851 C 404.919 106.17 404.366 105.618 403.686 105.618 C 403.005 105.618 402.452 106.17 402.452 106.851 C 402.452 107.532 403.005 108.084 403.686 108.084 C 404.366 108.084 404.919 107.532 404.919 106.851 Z " fill="rgb(37,106,158)"></path><path d=" M 404.399 103.606 C 404.399 102.925 403.847 102.373 403.166 102.373 C 402.485 102.373 401.932 102.925 401.932 103.606 C 401.932 104.287 402.485 104.839 403.166 104.839 C 403.847 104.839 404.399 104.287 404.399 103.606 Z " fill="rgb(37,106,158)"></path><path d=" M 403.142 100.814 C 403.142 100.133 402.59 99.581 401.909 99.581 C 401.228 99.581 400.676 100.133 400.676 100.814 C 400.676 101.495 401.228 102.047 401.909 102.047 C 402.59 102.047 403.142 101.495 403.142 100.814 Z " fill="rgb(37,106,158)"></path><path d=" M 401.284 98.348 C 401.284 97.667 400.731 97.115 400.051 97.115 C 399.369 97.115 398.817 97.667 398.817 98.348 C 398.817 99.029 399.369 99.581 400.051 99.581 C 400.731 99.581 401.284 99.029 401.284 98.348 Z " fill="rgb(37,106,158)"></path><path d=" M 398.59 96.076 C 398.59 95.395 398.038 94.843 397.357 94.843 C 396.676 94.843 396.124 95.395 396.124 96.076 C 396.124 96.757 396.676 97.309 397.357 97.309 C 398.038 97.309 398.59 96.757 398.59 96.076 Z " fill="rgb(37,106,158)"></path></g></g></svg> 