<?xml version="1.0" encoding="UTF-8" standalone="no"?> <!-- Generator: Gravit.io --> <svg xmlns="http://www.w3.org/2000/svg" xmlns:xlink="http://www.w3.org/1999/xlink" style="isolation:isolate" viewBox="189.364 346.283 136.6 103.2" width="136.6pt" height="103.2pt"><g><path d=" M 325.964 449.483 L 189.364 449.483 L 189.364 346.283 L 325.964 346.283 L 325.964 449.483 Z " fill="rgb(243,245,229)"></path><g><path d=" M 228.259 398.838 C 228.259 382.27 241.691 368.838 258.259 368.838 C 274.827 368.838 288.259 382.27 288.259 398.838 C 288.259 415.407 274.827 428.838 258.259 428.838 C 241.691 428.838 228.259 415.407 228.259 398.838 Z " fill="rgb(178,191,89)"></path><g style="mix-blend-mode:multiply;"><path d=" M 288.252 399.344 L 273.651 384.721 C 273.27 384.275 272.705 383.99 272.075 383.99 L 244.228 383.99 C 243.087 383.99 242.153 384.924 242.153 386.065 L 242.153 404.161 C 242.153 404.7 242.363 405.192 242.704 405.562 L 242.695 405.568 L 248.722 411.594 L 247.559 412.17 C 247.219 412.338 247.096 412.487 247.169 412.584 C 247.165 412.579 247.156 412.574 247.153 412.569 L 247.153 413.572 C 247.163 413.594 247.18 413.613 247.207 413.63 L 247.392 413.816 L 251.006 417.43 L 249.12 417.43 L 247.663 415.969 C 247.556 415.799 247.369 415.685 247.153 415.685 C 246.942 415.685 246.757 415.794 246.65 415.959 C 246.111 415.784 245.522 415.685 244.949 415.685 C 243.121 415.685 242.153 416.697 242.153 417.946 L 252.489 428.281 C 254.356 428.645 256.285 428.838 258.258 428.838 C 274.658 428.838 287.981 415.679 288.252 399.344 Z " fill="rgb(209,209,209)"></path></g><path d=" M 248.071 417.946 L 248.071 417.11 L 270.889 417.11 C 272.457 417.11 273.733 415.86 273.733 414.323 C 273.733 412.786 272.457 411.536 270.889 411.536 L 264.896 411.536 L 264.896 410.7 L 270.889 410.7 C 272.918 410.7 274.569 412.326 274.569 414.323 C 274.569 416.321 272.918 417.946 270.889 417.946 L 248.071 417.946 Z " fill="rgb(255,255,255)"></path><path d=" M 247.755 416.286 C 247.755 416.618 247.486 416.887 247.154 416.887 C 246.822 416.887 246.553 416.618 246.553 416.286 C 246.553 415.954 246.822 415.685 247.154 415.685 C 247.486 415.685 247.755 415.954 247.755 416.286 Z " fill="rgb(209,209,209)"></path><path d=" M 244.95 415.685 C 243.122 415.685 242.154 416.697 242.154 417.946 L 248.775 417.946 C 248.775 416.697 246.779 415.685 244.95 415.685 Z " fill="rgb(240,240,240)"></path><path d=" M 266.206 410.915 C 265.613 410.622 264.6 410.381 263.952 410.381 L 259.329 410.381 L 256.976 410.381 L 252.352 410.381 C 251.705 410.381 250.691 410.622 250.097 410.915 L 247.56 412.17 C 246.967 412.464 247.011 412.704 247.658 412.704 L 256.976 412.704 L 259.329 412.704 L 268.646 412.704 C 269.293 412.704 269.337 412.464 268.745 412.17 L 266.206 410.915 Z " fill="rgb(209,209,209)"></path><path d=" M 269.152 412.567 C 269.114 412.65 268.945 412.703 268.646 412.703 L 268.64 412.703 L 247.665 412.703 L 247.658 412.703 C 247.362 412.703 247.194 412.651 247.154 412.569 L 247.154 413.572 C 247.19 413.657 247.356 413.882 247.658 413.882 L 268.646 413.882 C 268.947 413.882 269.116 413.657 269.152 413.572 L 269.152 412.567 Z " fill="rgb(255,255,255)"></path><path d=" M 262.782 411.278 L 253.523 411.278 L 253.523 406.236 L 262.782 406.236 L 262.782 411.278 Z " fill="rgb(240,240,240)"></path><g style="mix-blend-mode:multiply;"><path d=" M 262.782 407.383 L 253.523 407.383 L 253.523 406.237 L 262.782 406.237 L 262.782 407.383 Z " fill="rgb(232,232,232)"></path></g><path d=" M 272.076 383.99 L 244.229 383.99 C 243.088 383.99 242.154 384.924 242.154 386.065 L 242.154 404.161 C 242.154 405.302 243.088 406.237 244.229 406.237 L 272.076 406.237 C 273.218 406.237 274.151 405.302 274.151 404.161 L 274.151 386.065 C 274.151 384.924 273.218 383.99 272.076 383.99 Z " fill="rgb(20,158,179)"></path><path d=" M 272.082 403.904 C 272.082 404.122 271.898 404.307 271.68 404.307 L 244.625 404.307 C 244.407 404.307 244.222 404.122 244.222 403.904 L 244.222 398.424 L 244.222 386.322 C 244.222 386.105 244.407 385.92 244.625 385.92 L 271.68 385.92 C 271.898 385.92 272.082 386.105 272.082 386.322 L 272.082 390.802 L 272.082 403.904 Z M 272.076 383.99 L 244.228 383.99 C 243.087 383.99 242.154 384.925 242.154 386.065 L 242.154 398.974 L 242.154 404.162 C 242.154 405.302 243.087 406.237 244.228 406.237 L 272.076 406.237 C 273.217 406.237 274.151 405.302 274.151 404.162 L 274.151 390.222 L 274.151 386.065 C 274.151 384.925 273.217 383.99 272.076 383.99 Z " fill="rgb(255,255,255)"></path><g style="mix-blend-mode:multiply;"><path d=" M 271.68 385.92 L 244.625 385.92 C 244.407 385.92 244.222 386.105 244.222 386.322 L 244.222 386.42 L 271.18 386.42 C 271.398 386.42 271.582 386.605 271.582 386.823 L 271.582 391.302 L 271.582 404.307 L 271.68 404.307 C 271.899 404.307 272.082 404.122 272.082 403.904 L 272.082 390.802 L 272.082 386.322 C 272.082 386.105 271.899 385.92 271.68 385.92 Z " fill="rgb(201,201,201)"></path></g><path d=" M 259.546 391.509 L 259.546 391.509 L 258.657 394.058 C 259.914 394.512 261.082 395.558 260.505 397.147 C 259.929 398.736 258.28 399.573 255.844 398.51 L 255.612 399.152 C 259.257 400.53 262.043 399.448 262.846 397.235 C 263.649 395.022 262.171 392.459 259.546 391.509 Z " fill="rgb(64,79,102)"></path><path d=" M 256.403 398.926 L 252.548 397.504 L 252.743 396.975 L 256.598 398.397 L 256.403 398.926 Z " fill="rgb(86,107,138)"></path><path d=" M 263.134 402.658 L 254.189 402.658 L 254.189 402.007 L 263.134 402.007 L 263.134 402.658 Z " fill="rgb(51,65,81)"></path><path d=" M 259.522 398.162 C 258.924 398.162 258.659 398.663 258.659 399.201 L 258.659 402.008 L 262.183 402.008 C 262.183 399.76 260.599 398.162 259.522 398.162 Z " fill="rgb(86,107,138)"></path><path d=" M 259.505 392.206 L 259.908 391.124 L 258.854 390.733 L 257.598 394.106 L 258.652 394.498 L 258.985 393.601 C 259.061 393.626 259.141 393.641 259.226 393.641 C 259.638 393.641 259.972 393.308 259.972 392.896 C 259.972 392.583 259.778 392.316 259.505 392.206 Z " fill="rgb(86,107,138)"></path><path d=" M 256.998 395.725 L 254.187 394.685 L 256.569 388.271 L 259.38 389.311 L 256.998 395.725 Z " fill="rgb(72,89,115)"></path><path d=" M 254.537 394.814 L 254.355 394.747 L 256.737 388.333 L 256.919 388.4 L 254.537 394.814 Z " fill="rgb(124,134,134)"></path><path d=" M 256.666 395.602 L 255.73 395.255 L 258.111 388.842 L 259.047 389.188 L 256.666 395.602 Z " fill="rgb(59,76,94)"></path><path d=" M 258.696 389.058 L 257.252 388.524 L 257.757 387.164 L 259.201 387.699 L 258.696 389.058 Z " fill="rgb(51,65,81)"></path><path d=" M 256.277 396.206 L 254.421 395.519 L 254.665 394.861 L 256.521 395.548 L 256.277 396.206 Z " fill="rgb(86,107,138)"></path><path d=" M 255.556 397.046 L 254.418 396.625 L 254.779 395.651 L 255.917 396.072 L 255.556 397.046 Z " fill="rgb(51,65,81)"></path><path d=" M 259.738 392.896 C 259.738 393.178 259.509 393.407 259.226 393.407 C 258.943 393.407 258.714 393.178 258.714 392.896 C 258.714 392.613 258.943 392.384 259.226 392.384 C 259.509 392.384 259.738 392.613 259.738 392.896 Z " fill="rgb(224,224,224)"></path><path d=" M 259.493 392.896 C 259.493 393.043 259.373 393.163 259.225 393.163 C 259.077 393.163 258.958 393.043 258.958 392.896 C 258.958 392.748 259.077 392.629 259.225 392.629 C 259.373 392.629 259.493 392.748 259.493 392.896 Z " fill="rgb(51,65,81)"></path><path d=" M 260.127 399.11 C 260.127 399.392 259.898 399.621 259.615 399.621 C 259.332 399.621 259.103 399.392 259.103 399.11 C 259.103 398.827 259.332 398.598 259.615 398.598 C 259.898 398.598 260.127 398.827 260.127 399.11 Z " fill="rgb(224,224,224)"></path><path d=" M 259.882 399.11 C 259.882 399.257 259.762 399.377 259.614 399.377 C 259.466 399.377 259.347 399.257 259.347 399.11 C 259.347 398.962 259.466 398.842 259.614 398.842 C 259.762 398.842 259.882 398.962 259.882 399.11 Z " fill="rgb(51,65,81)"></path></g></g></svg> 