<?xml version="1.0" encoding="UTF-8" standalone="no"?> <!-- Generator: Gravit.io --> <svg xmlns="http://www.w3.org/2000/svg" xmlns:xlink="http://www.w3.org/1999/xlink" style="isolation:isolate" viewBox="959.857 451 260 260" width="260pt" height="260pt"><g><path d=" M 1219.857 581 C 1219.857 652.797 1161.656 711 1089.858 711 C 1018.059 711 959.857 652.797 959.857 581 C 959.857 509.203 1018.059 451 1089.858 451 C 1161.656 451 1219.857 509.203 1219.857 581 Z " fill="rgb(204,55,115)"></path><g style="mix-blend-mode:multiply;"><path d=" M 1213.71 620.592 L 1123.355 530.373 L 1121.018 528.041 L 1116.688 523.718 C 1102.06 511.62 1081.226 508.107 1062.784 516.429 C 1037.009 528.052 1025.514 558.446 1037.163 584.175 C 1039.06 588.365 1041.46 592.171 1044.253 595.565 C 1036.701 604.28 1029.247 616.263 1029.094 629.755 C 1028.97 640.921 1037.932 650.073 1049.117 650.198 C 1050.533 650.215 1051.914 650.078 1053.247 649.814 C 1054.655 649.535 1056.012 649.116 1057.3 648.565 C 1056.917 654.969 1052.459 660.268 1046.507 661.929 C 1045.186 662.3 1043.793 662.494 1042.353 662.476 C 1041.287 662.466 1040.417 663.325 1040.403 664.385 C 1040.398 664.768 1040.51 665.125 1040.702 665.427 L 1041.298 666.022 L 1043.182 667.904 L 1086.302 710.949 C 1087.484 710.982 1088.669 711 1089.858 711 C 1147.848 711 1196.963 673.027 1213.71 620.592 Z " fill="rgb(209,209,209)"></path></g><path d=" M 1059.297 645.945 C 1058.232 645.938 1057.357 646.786 1057.343 647.848 C 1057.252 656.009 1050.526 662.576 1042.353 662.476 C 1041.287 662.466 1040.417 663.325 1040.403 664.385 C 1040.389 665.443 1041.246 666.317 1042.312 666.333 C 1052.61 666.447 1061.084 658.179 1061.201 647.891 C 1061.213 646.826 1060.359 645.959 1059.297 645.945 Z " fill="rgb(63,140,53)"></path><path d=" M 1029.094 629.755 C 1028.97 640.921 1037.932 650.073 1049.117 650.198 C 1052.809 650.24 1056.281 649.286 1059.276 647.6 L 1060.033 581 C 1060.033 581 1029.406 602.262 1029.094 629.755 Z " fill="rgb(75,166,63)"></path><path d=" M 1089.855 630.438 C 1089.723 641.605 1080.554 650.556 1069.373 650.428 C 1065.683 650.385 1062.235 649.356 1059.276 647.6 L 1060.034 581 C 1060.034 581 1090.164 602.951 1089.855 630.438 Z " fill="rgb(63,140,53)"></path><path d=" M 1138.811 666.057 C 1141.062 665.04 1142.074 662.373 1141.056 660.129 L 1126.454 627.933 C 1125.558 625.962 1123.388 624.946 1121.349 625.414 L 1119.822 622.039 C 1121.518 620.822 1122.186 618.522 1121.297 616.551 L 1119.318 612.17 C 1118.423 610.196 1116.253 609.182 1114.212 609.649 L 1111.589 603.85 L 1104.101 607.228 L 1131.882 669.187 L 1138.811 666.057 Z " fill="rgb(85,98,98)"></path><path d=" M 1104.101 607.228 L 1096.256 610.765 L 1098.884 616.567 C 1097.183 617.781 1096.508 620.082 1097.401 622.056 L 1099.386 626.435 C 1100.281 628.407 1102.447 629.423 1104.489 628.958 L 1106.014 632.329 C 1104.316 633.551 1103.647 635.843 1104.538 637.827 L 1119.141 670.012 C 1120.161 672.262 1122.832 673.266 1125.088 672.251 L 1131.882 669.187 L 1104.101 607.228 Z " fill="rgb(78,90,90)"></path><path d=" M 1102.267 603.65 C 1079.862 613.753 1053.4 603.78 1043.276 581.417 C 1033.149 559.053 1043.145 532.633 1065.547 522.527 C 1087.951 512.422 1114.414 522.401 1124.533 544.765 C 1134.66 567.127 1124.669 593.542 1102.267 603.65 Z M 1130.651 542.007 C 1119.004 516.273 1088.556 504.8 1062.785 516.429 C 1037.009 528.052 1025.514 558.446 1037.163 584.175 C 1048.808 609.908 1079.254 621.379 1105.028 609.753 C 1130.805 598.128 1142.294 567.733 1130.651 542.007 Z " fill="rgb(85,98,98)"></path><path d=" M 1065.547 522.527 C 1043.145 532.633 1033.149 559.053 1043.276 581.417 C 1053.4 603.78 1079.861 613.753 1102.267 603.65 C 1124.669 593.542 1134.659 567.127 1124.532 544.765 C 1114.414 522.402 1087.95 512.423 1065.547 522.527 Z " fill="rgb(201,201,201)"></path><path d=" M 1100.138 528.73 C 1113.109 534.864 1122.065 548.092 1121.964 563.335 C 1121.952 565.188 1120.443 566.673 1118.584 566.667 C 1116.733 566.655 1115.243 565.142 1115.257 563.292 C 1115.368 546.038 1101.4 531.91 1084.109 531.795 C 1082.258 531.784 1080.768 530.277 1080.778 528.426 C 1080.789 526.573 1082.303 525.089 1084.154 525.098 C 1089.87 525.136 1095.29 526.437 1100.138 528.73 Z " fill="rgb(255,255,255)"></path><path d=" M 1073.485 529.918 C 1073.485 529.918 1053.528 543.784 1039.379 565.143 C 1039.625 570.614 1040.882 576.128 1043.275 581.417 C 1049.027 594.129 1060.062 602.827 1072.627 606.121 C 1077.542 607.417 1082.696 607.867 1087.859 607.417 C 1091.326 607.109 1094.794 606.396 1098.202 605.247 C 1099.568 604.781 1100.921 604.257 1102.266 603.649 C 1108.542 600.819 1113.842 596.707 1118.002 591.764 C 1109.748 556.344 1073.485 529.918 1073.485 529.918 Z " fill="rgb(59,130,49)"></path><path d=" M 1091.08 585.401 C 1093.461 583.153 1095.327 580.466 1096.561 577.52 C 1097.807 574.576 1098.312 571.397 1098.095 568.323 C 1097.812 571.397 1096.764 574.319 1095.184 576.837 C 1093.605 579.356 1091.487 581.465 1089.091 583.083 C 1086.696 584.706 1084.229 585.847 1081.479 586.499 C 1078.959 587.089 1075.545 587.233 1073.018 587.046 L 1073.05 583.589 C 1070.505 583.31 1067.822 582.616 1065.525 581.526 C 1063.207 580.432 1061.059 578.953 1059.329 577.161 C 1057.599 575.368 1056.214 573.255 1055.387 570.989 C 1054.554 568.72 1054.265 566.312 1054.542 564.029 C 1054.765 566.321 1055.534 568.491 1056.712 570.331 C 1057.891 572.19 1059.456 573.724 1061.219 574.886 C 1062.978 576.057 1064.934 576.863 1066.932 577.313 C 1068.935 577.764 1070.923 577.854 1072.948 577.634 L 1072.994 572.876 C 1075.495 572.639 1078.445 572.018 1080.688 571.012 C 1083.029 569.98 1085.114 568.545 1086.887 566.787 C 1088.654 565.038 1090.035 562.958 1090.914 560.711 C 1091.799 558.458 1092.124 556.056 1091.892 553.768 C 1091.618 556.056 1090.791 558.209 1089.569 560.025 C 1088.35 561.85 1086.742 563.345 1084.955 564.473 C 1083.166 565.606 1081.19 566.366 1079.183 566.771 C 1078.3 566.947 1077.413 567.035 1076.524 567.073 C 1076.237 567.088 1075.947 567.089 1075.66 567.089 C 1075.029 567.083 1075.139 567.049 1074.508 566.986 C 1074.275 566.964 1074.337 566.943 1074.337 566.914 L 1074.337 566.927 L 1073.735 562.52 L 1072.96 562.44 L 1072.266 562.332 C 1071.913 562.244 1071.5 562.154 1071.169 562.038 C 1070.507 561.812 1069.826 561.516 1069.209 561.155 C 1067.977 560.44 1066.849 559.469 1065.934 558.285 C 1065.018 557.103 1064.296 555.716 1063.859 554.226 C 1063.421 552.735 1063.272 551.147 1063.425 549.645 C 1063.542 551.156 1063.948 552.577 1064.573 553.786 C 1065.196 554.998 1066.025 556.006 1066.956 556.77 C 1067.89 557.535 1068.928 558.063 1069.984 558.349 C 1070.515 558.495 1071.052 558.583 1071.581 558.609 C 1071.848 558.632 1072.125 558.632 1072.377 558.617 L 1073.162 558.546 L 1073.485 529.918 C 1073.485 529.918 1053.528 543.784 1039.379 565.143 C 1039.625 570.614 1040.883 576.128 1043.275 581.417 C 1049.027 594.13 1060.062 602.827 1072.627 606.121 L 1072.621 603.677 C 1069.296 603.386 1065.926 602.556 1062.892 601.205 C 1059.839 599.845 1057.046 597.975 1054.717 595.672 C 1052.388 593.381 1050.531 590.643 1049.363 587.669 C 1048.19 584.697 1047.723 581.508 1048.012 578.443 C 1048.221 581.518 1049.183 584.464 1050.706 587.015 C 1052.226 589.567 1054.294 591.727 1056.654 593.402 C 1059.016 595.078 1061.661 596.274 1064.396 596.988 C 1067.141 597.704 1070.109 597.921 1072.923 597.717 L 1072.964 593.269 C 1075.593 592.982 1079.984 591.959 1082.891 590.742 C 1085.975 589.455 1088.698 587.651 1091.08 585.401 Z " fill="rgb(75,166,63)"></path><path d=" M 1103.221 595.908 C 1101.118 599.123 1098.26 601.843 1094.996 603.953 C 1092.779 605.387 1090.368 606.538 1087.86 607.417 C 1091.326 607.11 1094.794 606.396 1098.202 605.247 C 1100.917 602.732 1103.145 599.786 1104.662 596.594 C 1106.405 592.96 1107.19 589.001 1106.96 585.142 C 1106.653 589 1105.329 592.708 1103.221 595.908 Z " fill="rgb(75,166,63)"></path></g></svg> 