<?xml version="1.0" encoding="UTF-8" standalone="no"?> <!-- Generator: Gravit.io --> <svg xmlns="http://www.w3.org/2000/svg" xmlns:xlink="http://www.w3.org/1999/xlink" style="isolation:isolate" viewBox="52.764 504.888 136.6 103.2" width="136.6pt" height="103.2pt"><g><path d=" M 189.364 608.088 L 52.764 608.088 L 52.764 504.888 L 189.364 504.888 L 189.364 608.088 Z " fill="rgb(255,246,241)"></path><g><path d=" M 150.621 557.729 C 150.621 574.297 137.189 587.729 120.621 587.729 C 104.052 587.729 90.621 574.297 90.621 557.729 C 90.621 541.161 104.052 527.729 120.621 527.729 C 137.189 527.729 150.621 541.161 150.621 557.729 Z " fill="rgb(245,143,106)"></path><g style="mix-blend-mode:multiply;"><path d=" M 149.905 564.263 L 132.351 546.739 L 129.893 544.284 C 129.506 543.978 129.101 543.693 128.683 543.425 C 126.345 541.923 123.566 541.047 120.578 541.047 C 112.285 541.047 105.563 547.759 105.563 556.037 C 105.563 559.348 106.64 562.407 108.462 564.887 L 111.714 568.133 L 113.783 570.2 L 130.24 586.147 C 140.074 582.819 147.624 574.534 149.905 564.263 Z " fill="rgb(209,209,209)"></path></g><path d=" M 120.579 541.047 C 112.286 541.047 105.563 547.759 105.563 556.037 C 105.563 564.317 112.286 571.027 120.579 571.027 C 128.871 571.027 135.595 564.317 135.595 556.037 C 135.595 547.759 128.871 541.047 120.579 541.047 Z " fill="rgb(137,230,232)"></path><g style="mix-blend-mode:multiply;"><path d=" M 120.579 541.047 L 120.579 571.027 C 128.871 571.027 135.595 564.317 135.595 556.037 C 135.595 547.759 128.871 541.047 120.579 541.047 Z " fill="rgb(222,222,222)"></path></g><path d=" M 133.156 556.151 C 131.978 556.151 131.023 555.198 131.023 554.022 C 131.023 552.845 131.978 551.892 133.156 551.892 L 135.013 551.892 C 134.573 550.357 133.892 548.923 133.016 547.633 C 131.859 545.93 130.362 544.478 128.62 543.374 L 120.579 543.374 L 120.579 547.779 C 121.373 548.088 121.936 548.86 121.936 549.762 C 121.936 550.665 121.373 551.436 120.579 551.746 L 120.579 556.151 L 120.992 556.151 C 122.17 556.151 123.125 557.104 123.125 558.281 C 123.125 559.458 122.17 560.411 120.992 560.411 C 120.943 560.411 120.894 560.413 120.846 560.416 C 120.755 560.422 120.666 560.434 120.579 560.452 L 120.579 564.63 C 120.666 564.646 120.755 564.659 120.846 564.665 C 120.894 564.669 120.943 564.671 120.992 564.671 L 123.063 564.671 C 124.242 564.671 125.197 565.624 125.197 566.799 C 125.197 567.976 126.153 568.929 127.33 568.929 C 128.509 568.929 129.464 567.976 129.464 566.799 C 129.464 565.624 128.509 564.671 127.33 564.671 C 126.153 564.671 125.197 563.716 125.197 562.541 C 125.197 561.364 126.153 560.411 127.33 560.411 L 133.156 560.411 C 134.334 560.411 135.289 559.458 135.289 558.281 C 135.289 557.104 134.334 556.151 133.156 556.151 Z " fill="rgb(63,140,53)"></path><path d=" M 115.372 545.273 C 115.372 544.097 114.417 543.144 113.239 543.144 C 113.108 543.144 112.979 543.156 112.854 543.178 C 112.358 543.475 111.882 543.8 111.425 544.151 C 110.227 545.072 109.173 546.169 108.301 547.404 L 113.239 547.404 C 114.417 547.404 115.372 546.45 115.372 545.273 Z " fill="rgb(75,166,63)"></path><path d=" M 110.565 559.579 L 108.404 559.579 C 107.226 559.579 106.271 558.626 106.271 557.448 C 106.271 556.273 107.226 555.32 108.404 555.32 C 109.583 555.32 110.538 554.366 110.538 553.19 C 110.538 552.014 109.583 551.059 108.404 551.059 L 106.41 551.059 C 105.937 552.402 105.651 553.833 105.581 555.32 C 105.569 555.557 105.563 555.795 105.563 556.034 C 105.563 557.256 105.709 558.442 105.985 559.579 C 106.355 561.103 106.959 562.536 107.756 563.839 L 110.565 563.839 C 111.742 563.839 112.697 562.885 112.697 561.709 C 112.697 560.532 111.742 559.579 110.565 559.579 Z " fill="rgb(75,166,63)"></path><path d=" M 118.858 562.541 C 118.858 563.576 119.598 564.437 120.579 564.63 L 120.579 560.452 C 119.598 560.645 118.858 561.506 118.858 562.541 Z " fill="rgb(75,166,63)"></path><path d=" M 119.802 543.374 C 118.624 543.374 117.669 544.328 117.669 545.504 C 117.669 546.68 118.624 547.634 119.802 547.634 C 120.076 547.634 120.338 547.686 120.579 547.779 L 120.579 543.374 L 119.802 543.374 Z " fill="rgb(75,166,63)"></path><path d=" M 119.802 551.893 L 116.041 551.893 C 114.862 551.893 113.907 552.846 113.907 554.023 C 113.907 555.199 114.862 556.152 116.041 556.152 L 120.579 556.152 L 120.579 551.747 C 120.338 551.841 120.076 551.893 119.802 551.893 Z " fill="rgb(75,166,63)"></path></g></g></svg> 