<?xml version="1.0" encoding="UTF-8" standalone="no"?> <!-- Generator: Gravit.io --> <svg xmlns="http://www.w3.org/2000/svg" xmlns:xlink="http://www.w3.org/1999/xlink" style="isolation:isolate" viewBox="960.342 955.247 260 260.001" width="260pt" height="260.001pt"><g><path d=" M 1220.342 1085.247 C 1220.342 1157.044 1162.14 1215.247 1090.344 1215.247 C 1018.545 1215.247 960.342 1157.044 960.342 1085.247 C 960.342 1013.45 1018.545 955.247 1090.344 955.247 C 1162.14 955.247 1220.342 1013.45 1220.342 1085.247 Z " fill="rgb(75,195,212)"></path><g style="mix-blend-mode:multiply;"><path d=" M 1220.262 1089.625 L 1163.842 1033.203 L 1163.752 1033.294 L 1163.752 1033.202 L 1130.898 1033.202 L 1114.94 1017.244 C 1114.889 1017.19 1114.852 1017.124 1114.799 1017.071 C 1109.689 1011.966 1094.035 1019.012 1077.026 1033.202 L 1016.933 1033.202 L 1016.933 1140.183 L 1016.933 1140.184 L 1016.933 1142.825 L 1017.522 1143.413 L 1089.341 1215.232 C 1089.676 1215.235 1090.008 1215.248 1090.344 1215.248 C 1160.674 1215.248 1217.951 1159.394 1220.262 1089.625 Z " fill="rgb(209,209,209)"></path></g><path d=" M 1079.011 1033.203 L 1016.933 1033.203 L 1016.933 1140.183 L 1079.011 1140.183 C 1085.246 1140.183 1089.89 1145.223 1090.344 1151.496 L 1090.344 1044.517 C 1090.344 1038.294 1085.246 1033.203 1079.011 1033.203 Z " fill="rgb(255,255,255)"></path><path d=" M 1101.679 1033.203 L 1163.752 1033.203 L 1163.752 1140.183 L 1101.679 1140.183 C 1095.441 1140.183 1090.801 1145.223 1090.344 1151.496 L 1090.344 1044.517 C 1090.344 1038.294 1095.441 1033.203 1101.679 1033.203 Z " fill="rgb(230,230,230)"></path><path d=" M 1091.955 1153.229 L 1088.73 1153.229 C 1088.317 1147.542 1084.229 1143.413 1079.011 1143.413 L 1016.933 1143.413 L 1016.933 1140.185 L 1079.011 1140.185 C 1083.893 1140.185 1088.125 1142.982 1090.344 1147.235 C 1092.562 1142.982 1096.792 1140.185 1101.679 1140.185 L 1163.752 1140.185 L 1163.752 1143.413 L 1101.679 1143.413 C 1096.456 1143.413 1092.373 1147.542 1091.955 1153.229 Z " fill="rgb(105,224,177)"></path><path d=" M 1090.344 1074.019 C 1088.214 1070.339 1084.24 1067.85 1079.682 1067.85 L 1016.933 1067.85 L 1016.933 1069.489 L 1079.682 1069.489 C 1085.498 1069.489 1090.231 1074.161 1090.344 1079.939 L 1090.344 1074.019 Z " fill="rgb(191,191,191)"></path><path d=" M 1090.344 1055.568 C 1088.214 1051.886 1084.24 1049.4 1079.682 1049.4 L 1016.933 1049.4 L 1016.933 1051.038 L 1079.682 1051.038 C 1085.498 1051.038 1090.231 1055.708 1090.344 1061.489 L 1090.344 1055.568 Z " fill="rgb(191,191,191)"></path><path d=" M 1090.344 1092.472 C 1088.214 1088.792 1084.24 1086.305 1079.682 1086.305 L 1016.933 1086.305 L 1016.933 1087.943 L 1079.682 1087.943 C 1085.498 1087.943 1090.231 1092.612 1090.344 1098.393 L 1090.344 1092.472 Z " fill="rgb(191,191,191)"></path><path d=" M 1090.344 1110.925 C 1088.214 1107.244 1084.24 1104.754 1079.682 1104.754 L 1016.933 1104.754 L 1016.933 1106.394 L 1079.682 1106.394 C 1085.498 1106.394 1090.231 1111.065 1090.344 1116.844 L 1090.344 1110.925 Z " fill="rgb(191,191,191)"></path><path d=" M 1090.344 1129.377 C 1088.214 1125.698 1084.24 1123.208 1079.682 1123.208 L 1016.933 1123.208 L 1016.933 1124.847 L 1079.682 1124.847 C 1085.498 1124.847 1090.231 1129.517 1090.344 1135.296 L 1090.344 1129.377 Z " fill="rgb(191,191,191)"></path><g style="mix-blend-mode:multiply;"><path d=" M 1090.344 1055.568 C 1092.472 1051.886 1096.45 1049.4 1101.004 1049.4 L 1163.752 1049.4 L 1163.752 1051.038 L 1101.004 1051.038 C 1095.187 1051.038 1090.453 1055.708 1090.344 1061.489 L 1090.344 1055.568 Z " fill="rgb(191,191,191)"></path></g><g style="mix-blend-mode:multiply;"><path d=" M 1090.344 1074.022 C 1092.472 1070.339 1096.45 1067.85 1101.004 1067.85 L 1163.752 1067.85 L 1163.752 1069.489 L 1101.004 1069.489 C 1095.187 1069.489 1090.453 1074.161 1090.344 1079.939 L 1090.344 1074.022 Z " fill="rgb(191,191,191)"></path></g><g style="mix-blend-mode:multiply;"><path d=" M 1090.344 1092.472 C 1092.472 1088.792 1096.45 1086.305 1101.004 1086.305 L 1163.752 1086.305 L 1163.752 1087.943 L 1101.004 1087.943 C 1095.187 1087.943 1090.453 1092.612 1090.344 1098.393 L 1090.344 1092.472 Z " fill="rgb(191,191,191)"></path></g><g style="mix-blend-mode:multiply;"><path d=" M 1090.344 1110.925 C 1092.472 1107.244 1096.45 1104.754 1101.004 1104.754 L 1163.752 1104.754 L 1163.752 1106.394 L 1101.004 1106.394 C 1095.187 1106.394 1090.453 1111.065 1090.344 1116.844 L 1090.344 1110.925 Z " fill="rgb(191,191,191)"></path></g><g style="mix-blend-mode:multiply;"><path d=" M 1090.344 1129.377 C 1092.472 1125.698 1096.45 1123.208 1101.004 1123.208 L 1163.752 1123.208 L 1163.752 1124.847 L 1101.004 1124.847 C 1095.187 1124.847 1090.453 1129.517 1090.344 1135.296 L 1090.344 1129.377 Z " fill="rgb(191,191,191)"></path></g><path d=" M 1035.141 1096.88 C 1034.545 1096.286 1034.545 1095.318 1035.138 1094.72 L 1039.194 1090.659 C 1039.788 1090.063 1040.757 1090.063 1041.353 1090.66 C 1041.95 1091.258 1041.951 1092.225 1041.357 1092.821 L 1037.311 1096.879 C 1036.709 1097.477 1035.738 1097.48 1035.141 1096.88 Z " fill="rgb(117,117,117)"></path><path d=" M 1076.83 1055.114 L 1065.467 1043.775 C 1065.421 1043.823 1065.374 1043.872 1065.324 1043.916 C 1054.034 1055.227 1045.357 1066.847 1040.712 1076.161 L 1048.282 1083.719 L 1055.852 1091.279 C 1065.155 1086.607 1076.761 1077.911 1088.049 1066.598 C 1088.097 1066.55 1088.142 1066.503 1088.194 1066.457 L 1076.83 1055.114 Z " fill="rgb(250,89,87)"></path><g style="mix-blend-mode:multiply;"><path d=" M 1088.194 1066.456 L 1076.83 1055.113 L 1048.282 1083.718 L 1055.852 1091.279 C 1065.155 1086.606 1076.76 1077.91 1088.048 1066.597 C 1088.096 1066.549 1088.141 1066.502 1088.194 1066.456 Z " fill="rgb(232,232,232)"></path></g><path d=" M 1048.282 1083.719 L 1040.712 1076.161 C 1036.684 1084.21 1035.663 1090.539 1038.574 1093.442 C 1041.483 1096.349 1047.807 1095.315 1055.852 1091.279 L 1048.282 1083.719 Z " fill="rgb(255,226,79)"></path><g style="mix-blend-mode:multiply;"><path d=" M 1038.574 1093.441 C 1041.483 1096.348 1047.807 1095.315 1055.852 1091.278 L 1048.282 1083.718 L 1038.574 1093.441 Z " fill="rgb(232,232,232)"></path></g><path d=" M 1114.799 1017.072 C 1108.865 1011.145 1088.725 1021.586 1068.748 1040.583 L 1080.061 1051.874 L 1091.37 1063.166 C 1110.337 1043.154 1120.734 1022.994 1114.799 1017.072 Z " fill="rgb(250,89,87)"></path><g style="mix-blend-mode:multiply;"><path d=" M 1091.37 1063.166 C 1110.337 1043.153 1120.733 1022.994 1114.799 1017.072 L 1080.06 1051.874 L 1091.37 1063.166 Z " fill="rgb(232,232,232)"></path></g><path d=" M 1080.061 1051.874 L 1068.748 1040.583 C 1067.651 1041.623 1066.561 1042.683 1065.467 1043.774 L 1076.831 1055.114 L 1088.195 1066.457 C 1089.28 1065.362 1090.332 1064.264 1091.371 1063.166 L 1080.061 1051.874 Z " fill="rgb(255,226,79)"></path><g style="mix-blend-mode:multiply;"><path d=" M 1076.83 1055.114 L 1088.194 1066.457 C 1089.279 1065.363 1090.332 1064.264 1091.37 1063.166 L 1080.06 1051.874 L 1076.83 1055.114 Z " fill="rgb(232,232,232)"></path></g><path d=" M 1120.902 1049.471 L 1120.564 1046.123 L 1116.42 1020.934 C 1116.919 1026.372 1113.036 1035.272 1105.997 1045.387 L 1109.893 1049.18 L 1089.465 1073.158 C 1087.732 1072.804 1085.863 1073.3 1084.523 1074.646 C 1082.415 1076.761 1082.409 1080.172 1084.49 1082.302 C 1084.506 1082.317 1084.516 1082.332 1084.532 1082.348 C 1086.655 1084.47 1090.104 1084.468 1092.231 1082.342 C 1093.706 1080.865 1094.127 1078.766 1093.563 1076.902 L 1120.902 1049.471 Z " fill="rgb(255,226,79)"></path><g style="mix-blend-mode:multiply;"><path d=" M 1093.564 1076.901 L 1120.903 1049.47 L 1120.565 1046.122 L 1084.491 1082.301 C 1084.507 1082.316 1084.517 1082.331 1084.533 1082.347 C 1086.656 1084.469 1090.105 1084.467 1092.231 1082.341 C 1093.707 1080.864 1094.127 1078.766 1093.564 1076.901 Z " fill="rgb(232,232,232)"></path></g></g></svg> 