<?xml version="1.0" encoding="UTF-8" standalone="no"?> <!-- Generator: Gravit.io --> <svg xmlns="http://www.w3.org/2000/svg" xmlns:xlink="http://www.w3.org/1999/xlink" style="isolation:isolate" viewBox="961.042 737 260 260.001" width="260pt" height="260.001pt"><g><path d=" M 1013 840.714 L 1168 836.714 L 1219.331 888.088 C 1220.451 881.223 1221.042 874.181 1221.042 867 C 1221.042 807.576 1181.172 757.466 1126.723 741.959 L 1099.869 790.61 L 1099.911 790.689 L 1099.826 790.689 L 1099.722 790.877 L 1083.307 790.877 L 1083.449 790.605 L 1056.437 741.665 C 1001.44 756.817 961.042 807.187 961.042 867 C 961.042 930.25 1006.217 982.942 1066.06 994.591 L 1013 941.532 L 1013 840.714 Z " fill="rgb(241,90,36)"></path><path d=" M 1110.7 738.479 C 1104.289 737.506 1097.724 737 1091.042 737 C 1084.757 737 1078.578 737.456 1072.531 738.318 L 1091.658 774.903 L 1110.7 738.479 Z " fill="rgb(241,90,36)"></path><path d=" M 1219.331 888.088 L 1168 836.714 L 1013 840.714 L 1013 941.532 L 1066.06 994.591 C 1074.145 996.166 1082.496 997 1091.042 997 C 1155.658 997 1209.254 949.855 1219.331 888.088 Z " fill="rgb(241,90,36)"></path><g style="mix-blend-mode:multiply;"><path d=" M 1219.331 888.088 L 1168 836.714 L 1013 840.714 L 1013 941.532 L 1066.06 994.591 C 1074.145 996.166 1082.496 997 1091.042 997 C 1155.658 997 1209.254 949.855 1219.331 888.088 Z " fill="rgb(209,209,209)"></path></g><path d=" M 1099.911 790.689 L 1099.869 790.61 L 1099.826 790.689 L 1099.911 790.689 Z " fill="rgb(240,150,62)"></path><path d=" M 1091.658 774.903 L 1072.531 738.318 C 1067.049 739.1 1061.677 740.222 1056.436 741.666 L 1083.449 790.605 L 1091.658 774.903 Z " fill="rgb(240,150,62)"></path><path d=" M 1083.449 790.605 L 1083.306 790.877 L 1099.721 790.877 L 1099.826 790.689 L 1083.495 790.689 L 1083.449 790.605 Z " fill="rgb(254,179,88)"></path><path d=" M 1099.869 790.61 L 1126.723 741.959 C 1121.508 740.473 1116.16 739.306 1110.7 738.478 L 1091.658 774.902 L 1099.869 790.61 Z " fill="rgb(254,179,88)"></path><path d=" M 1083.449 790.605 L 1083.495 790.689 L 1099.826 790.689 L 1099.869 790.61 L 1091.658 774.903 L 1083.449 790.605 Z " fill="rgb(254,179,88)"></path><path d=" M 1170.102 937.556 C 1170.102 941.564 1166.822 944.844 1162.814 944.844 L 1019.272 944.844 C 1015.263 944.844 1011.984 941.564 1011.984 937.556 L 1011.984 842.506 C 1011.984 838.498 1015.263 835.218 1019.272 835.218 L 1162.814 835.218 C 1166.822 835.218 1170.102 838.498 1170.102 842.506 L 1170.102 937.556 Z " fill="rgb(255,255,255)"></path><path d=" M 1162.226 938.052 L 1020.664 938.052 L 1020.664 860.88 L 1162.226 860.88 L 1162.226 938.052 Z " fill="rgb(229,233,236)"></path><path d=" M 1155.007 875.22 L 1090.477 875.22 L 1090.477 872.012 L 1155.007 872.012 L 1155.007 875.22 Z " fill="rgb(170,170,170)"></path><path d=" M 1155.007 885.975 L 1090.477 885.975 L 1090.477 882.767 L 1155.007 882.767 L 1155.007 885.975 Z " fill="rgb(170,170,170)"></path><path d=" M 1155.007 897.107 L 1090.477 897.107 L 1090.477 893.899 L 1155.007 893.899 L 1155.007 897.107 Z " fill="rgb(170,170,170)"></path><path d=" M 1155.007 908.051 L 1090.477 908.051 L 1090.477 904.843 L 1155.007 904.843 L 1155.007 908.051 Z " fill="rgb(170,170,170)"></path><path d=" M 1155.007 918.995 L 1090.477 918.995 L 1090.477 915.787 L 1155.007 915.787 L 1155.007 918.995 Z " fill="rgb(170,170,170)"></path><path d=" M 1078.4 917.674 L 1031.984 917.674 L 1031.984 871.257 L 1078.4 871.257 L 1078.4 917.674 Z " fill="rgb(133,218,255)"></path><path d=" M 1076.891 914.089 C 1076.891 914.089 1076.514 907.673 1071.419 903.711 C 1066.326 899.749 1063.872 899.371 1063.872 899.371 L 1061.608 897.107 C 1061.608 897.107 1059.91 898.05 1060.476 896.352 C 1061.042 894.654 1064.438 891.446 1063.872 884.654 C 1063.306 877.861 1064.438 879.56 1062.174 877.861 C 1059.91 876.163 1060.476 875.597 1058.211 875.031 C 1055.948 874.465 1053.118 873.899 1053.118 873.899 L 1050.853 873.899 L 1046.325 875.031 L 1044.626 877.861 L 1042.362 878.427 C 1042.362 878.427 1044.626 879.56 1044.06 882.39 C 1043.495 885.22 1044.06 890.315 1045.758 893.145 C 1047.456 895.975 1050.853 897.107 1050.853 897.107 L 1050.287 899.371 C 1050.287 899.371 1048.589 901.635 1045.193 902.768 C 1041.796 903.9 1040.098 903.334 1036.135 907.296 C 1032.173 911.258 1033.305 917.485 1033.305 917.485 L 1077.457 917.485 L 1076.891 914.089 Z " fill="rgb(85,192,242)"></path><path d=" M 1108.778 829.959 C 1108.778 831.295 1107.685 832.388 1106.349 832.388 L 1076.112 832.388 C 1074.776 832.388 1073.683 831.295 1073.683 829.959 L 1073.683 828.025 C 1073.683 826.689 1074.776 825.596 1076.112 825.596 L 1106.349 825.596 C 1107.685 825.596 1108.778 826.689 1108.778 828.025 L 1108.778 829.959 Z " fill="rgb(229,233,236)"></path><path d=" M 1111.764 793.997 C 1111.764 797.782 1107.714 800.878 1102.764 800.878 L 1080.338 800.878 C 1075.388 800.878 1071.338 797.782 1071.338 793.997 C 1071.338 790.212 1075.388 787.115 1080.338 787.115 L 1102.764 787.115 C 1107.714 787.115 1111.764 790.212 1111.764 793.997 Z " fill="none" stroke-width="4" stroke="rgb(64,79,102)" stroke-linejoin="miter" stroke-linecap="square" stroke-miterlimit="3"></path><path d=" M 1104.156 829.369 L 1078.306 829.369 L 1078.306 795.217 L 1104.156 795.217 L 1104.156 829.369 Z " fill="rgb(85,192,242)"></path><path d=" M 1098.401 807.482 C 1098.401 811.442 1095.191 814.652 1091.231 814.652 C 1087.271 814.652 1084.061 811.442 1084.061 807.482 C 1084.061 803.522 1087.271 800.312 1091.231 800.312 C 1095.191 800.312 1098.401 803.522 1098.401 807.482 Z " fill="rgb(229,233,236)"></path></g></svg> 