<?xml version="1.0" encoding="UTF-8" standalone="no"?> <!-- Generator: Gravit.io --> <svg xmlns="http://www.w3.org/2000/svg" xmlns:xlink="http://www.w3.org/1999/xlink" style="isolation:isolate" viewBox="462.564 504.888 136.6 103.2" width="136.6pt" height="103.2pt"><g><path d=" M 599.164 608.088 L 462.564 608.088 L 462.564 504.888 L 599.164 504.888 L 599.164 608.088 Z " fill="rgb(254,238,233)"></path><g><path d=" M 562.042 557.518 C 562.042 574.086 548.61 587.518 532.042 587.518 C 515.474 587.518 502.042 574.086 502.042 557.518 C 502.042 540.95 515.474 527.518 532.042 527.518 C 548.61 527.518 562.042 540.95 562.042 557.518 Z " fill="rgb(241,90,36)"></path><g style="mix-blend-mode:multiply;"><path d=" M 561.582 562.778 L 541.632 542.856 L 541.63 542.857 C 541.443 542.68 541.239 542.528 541.018 542.4 C 540.875 542.317 540.726 542.25 540.572 542.19 C 540.167 542.033 539.725 541.951 539.248 541.951 C 537.462 541.951 535.28 543.075 533.035 545.018 L 529.464 541.454 C 529.097 541.258 528.678 541.148 528.233 541.148 C 527.399 541.148 526.657 541.537 526.176 542.141 C 525.71 542.017 525.262 541.951 524.836 541.951 C 524.179 541.951 523.584 542.101 523.067 542.4 C 520.889 543.655 520.476 547.293 521.63 551.918 C 517.041 553.231 514.092 555.408 514.092 557.919 C 514.092 558.493 514.253 559.049 514.546 559.582 L 516.807 561.838 L 520.082 565.108 C 519.258 565.551 518.697 566.422 518.697 567.422 C 518.697 568.203 519.04 568.904 519.583 569.383 L 521.382 571.179 C 521.608 571.873 521.939 572.45 522.375 572.894 L 522.369 572.901 L 523.084 573.615 L 536.651 587.165 C 549.311 585.213 559.358 575.346 561.582 562.778 Z " fill="rgb(209,209,209)"></path></g><path d=" M 532.042 551.489 C 522.798 551.489 514.988 554.433 514.988 557.919 C 514.988 561.404 522.798 564.347 532.042 564.347 C 541.286 564.347 549.096 561.404 549.096 557.919 C 549.096 554.433 541.286 551.489 532.042 551.489 Z M 532.042 565.243 L 532.042 565.243 C 521.977 565.243 514.092 562.026 514.092 557.919 C 514.092 553.811 521.977 550.594 532.042 550.594 C 542.107 550.594 549.992 553.812 549.992 557.919 C 549.992 562.026 542.107 565.243 532.042 565.243 Z " fill="rgb(89,102,102)"></path><path d=" M 524.836 542.847 C 524.339 542.847 523.895 542.957 523.516 543.175 C 520.492 544.918 521.843 553.142 526.465 561.134 C 530.439 568.004 535.815 572.992 539.248 572.992 C 539.746 572.992 540.19 572.881 540.569 572.662 C 543.593 570.919 542.241 562.696 537.62 554.704 C 533.646 547.833 528.27 542.847 524.836 542.847 Z M 539.248 573.887 C 535.454 573.887 529.878 568.826 525.688 561.581 C 520.655 552.879 519.504 544.453 523.067 542.401 C 523.584 542.102 524.179 541.951 524.836 541.951 C 528.63 541.951 534.206 547.012 538.397 554.257 C 543.429 562.959 544.58 571.384 541.018 573.437 C 540.5 573.736 539.905 573.887 539.248 573.887 Z " fill="rgb(89,102,102)"></path><path d=" M 539.248 542.847 C 535.814 542.847 530.438 547.833 526.465 554.704 C 521.843 562.696 520.492 570.919 523.516 572.662 C 523.894 572.881 524.339 572.992 524.836 572.992 C 528.269 572.992 533.645 568.005 537.62 561.134 C 539.93 557.14 541.487 553.038 542.005 549.584 C 542.495 546.32 541.972 543.985 540.569 543.175 C 540.189 542.957 539.746 542.847 539.248 542.847 Z M 524.836 573.887 C 524.18 573.887 523.584 573.736 523.067 573.438 C 519.504 571.384 520.655 562.959 525.687 554.257 C 529.878 547.012 535.454 541.951 539.248 541.951 C 539.905 541.951 540.5 542.102 541.018 542.401 C 542.781 543.417 543.447 546.016 542.892 549.718 C 542.357 553.279 540.762 557.493 538.396 561.581 C 534.206 568.826 528.63 573.887 524.836 573.887 Z " fill="rgb(89,102,102)"></path><path d=" M 536.416 557.919 C 536.416 560.227 534.543 562.097 532.231 562.097 C 529.92 562.097 528.047 560.227 528.047 557.919 C 528.047 555.611 529.92 553.741 532.231 553.741 C 534.543 553.741 536.416 555.611 536.416 557.919 Z " fill="rgb(255,226,74)"></path><path d=" M 531.753 556.726 C 531.753 557.385 531.218 557.919 530.558 557.919 C 529.897 557.919 529.361 557.385 529.361 556.726 C 529.361 556.067 529.897 555.532 530.558 555.532 C 531.218 555.532 531.753 556.067 531.753 556.726 Z " fill="rgb(255,255,255)"></path><path d=" M 549.544 561.618 C 549.544 563.069 548.366 564.244 546.914 564.244 C 545.461 564.244 544.283 563.069 544.283 561.618 C 544.283 560.168 545.461 558.993 546.914 558.993 C 548.366 558.993 549.544 560.168 549.544 561.618 Z " fill="rgb(255,171,77)"></path><path d=" M 546.613 560.868 C 546.613 561.282 546.276 561.618 545.861 561.618 C 545.446 561.618 545.109 561.282 545.109 560.868 C 545.109 560.454 545.446 560.118 545.861 560.118 C 546.276 560.118 546.613 560.454 546.613 560.868 Z " fill="rgb(255,255,255)"></path><path d=" M 530.863 543.773 C 530.863 545.223 529.685 546.399 528.233 546.399 C 526.78 546.399 525.602 545.223 525.602 543.773 C 525.602 542.323 526.78 541.148 528.233 541.148 C 529.685 541.148 530.863 542.323 530.863 543.773 Z " fill="rgb(255,171,77)"></path><path d=" M 527.933 543.023 C 527.933 543.437 527.596 543.773 527.181 543.773 C 526.766 543.773 526.43 543.437 526.43 543.023 C 526.43 542.609 526.766 542.273 527.181 542.273 C 527.596 542.273 527.933 542.609 527.933 543.023 Z " fill="rgb(255,255,255)"></path><path d=" M 523.959 567.422 C 523.959 568.872 522.781 570.047 521.328 570.047 C 519.875 570.047 518.697 568.872 518.697 567.422 C 518.697 565.972 519.875 564.796 521.328 564.796 C 522.781 564.796 523.959 565.972 523.959 567.422 Z " fill="rgb(255,171,77)"></path><path d=" M 521.027 566.672 C 521.027 567.086 520.69 567.422 520.275 567.422 C 519.861 567.422 519.524 567.086 519.524 566.672 C 519.524 566.257 519.861 565.921 520.275 565.921 C 520.69 565.921 521.027 566.257 521.027 566.672 Z " fill="rgb(255,255,255)"></path></g></g></svg> 