<?xml version="1.0" encoding="UTF-8" standalone="no"?> <!-- Generator: Gravit.io --> <svg xmlns="http://www.w3.org/2000/svg" xmlns:xlink="http://www.w3.org/1999/xlink" style="isolation:isolate" viewBox="462.564 346.283 136.6 103.2" width="136.6pt" height="103.2pt"><g><path d=" M 599.164 449.483 L 462.564 449.483 L 462.564 346.283 L 599.164 346.283 L 599.164 449.483 Z " fill="rgb(250,235,241)"></path><g><path d=" M 562.045 398.838 C 562.045 415.407 548.613 428.838 532.045 428.838 C 515.477 428.838 502.045 415.407 502.045 398.838 C 502.045 382.27 515.477 368.838 532.045 368.838 C 548.613 368.838 562.045 382.27 562.045 398.838 Z " fill="rgb(214,95,143)"></path><g style="mix-blend-mode:multiply;"><path d=" M 562.032 399.667 L 545.738 383.388 L 545.684 383.335 L 540.599 383.335 L 521.887 383.335 C 521.885 383.334 521.883 383.333 521.881 383.331 C 521.865 383.32 521.848 383.313 521.833 383.303 C 521.786 383.274 521.739 383.245 521.689 383.221 C 521.657 383.206 521.622 383.195 521.589 383.182 C 521.553 383.168 521.518 383.152 521.481 383.141 C 521.432 383.126 521.383 383.117 521.332 383.107 C 521.308 383.102 521.285 383.095 521.261 383.091 C 521.185 383.08 521.108 383.074 521.031 383.074 L 519.789 383.074 C 518.996 383.074 518.35 383.667 518.35 384.397 L 518.35 406.823 L 518.35 414.375 C 518.35 414.522 518.383 414.662 518.431 414.793 L 519.235 415.596 L 532.484 428.833 C 548.573 428.601 561.597 415.706 562.032 399.667 Z " fill="rgb(209,209,209)"></path></g><path d=" M 521.888 383.335 C 521.641 383.166 521.344 383.074 521.032 383.074 L 519.789 383.074 C 518.996 383.074 518.351 383.668 518.351 384.397 L 518.351 408.816 L 545.739 408.816 L 545.739 383.335 L 521.888 383.335 Z " fill="rgb(201,192,0)"></path><g style="mix-blend-mode:multiply;"><path d=" M 521.031 407.216 C 521.341 407.216 521.635 407.306 521.881 407.473 L 521.881 383.331 C 521.635 383.164 521.341 383.073 521.031 383.073 L 520.704 383.073 L 520.704 407.216 L 521.031 407.216 Z " fill="rgb(232,232,232)"></path></g><path d=" M 521.031 407.738 L 519.789 407.738 C 519.286 407.738 518.874 408.098 518.874 408.539 L 518.874 414.375 C 518.874 414.816 519.286 415.176 519.789 415.176 L 521.031 415.176 C 521.297 415.176 521.536 415.075 521.704 414.915 L 545.738 414.915 L 545.738 407.999 L 521.704 407.999 C 521.536 407.839 521.297 407.738 521.031 407.738 Z " fill="rgb(85,98,98)"></path><path d=" M 545.738 414.915 L 521.704 414.915 C 521.536 415.076 521.297 415.177 521.031 415.177 L 519.789 415.177 C 519.286 415.177 518.874 414.815 518.874 414.375 L 518.874 408.54 C 518.874 408.098 519.286 407.738 519.789 407.738 L 521.031 407.738 C 521.297 407.738 521.536 407.839 521.704 407.999 L 545.738 407.999 L 545.738 407.477 L 521.887 407.477 C 521.64 407.307 521.343 407.216 521.031 407.216 L 519.789 407.216 C 518.996 407.216 518.35 407.809 518.35 408.54 L 518.35 414.375 C 518.35 415.105 518.996 415.698 519.789 415.698 L 521.031 415.698 C 521.343 415.698 521.64 415.606 521.887 415.437 L 545.738 415.437 L 545.738 414.915 Z " fill="rgb(137,156,0)"></path><path d=" M 545.738 408.13 L 520.224 408.13 C 520.009 408.13 519.833 408.254 519.833 408.404 L 545.738 408.404 L 545.738 408.13 Z " fill="rgb(255,255,255)"></path><path d=" M 519.833 408.404 C 519.833 408.555 520.009 408.678 520.225 408.678 L 545.738 408.678 L 545.738 408.404 L 519.833 408.404 Z " fill="rgb(191,191,191)"></path><path d=" M 545.738 408.679 L 520.224 408.679 C 520.009 408.679 519.833 408.803 519.833 408.954 L 545.738 408.954 L 545.738 408.679 Z " fill="rgb(255,255,255)"></path><path d=" M 519.833 408.954 C 519.833 409.105 520.009 409.228 520.225 409.228 L 545.738 409.228 L 545.738 408.954 L 519.833 408.954 Z " fill="rgb(191,191,191)"></path><path d=" M 545.738 409.228 L 520.224 409.228 C 520.009 409.228 519.833 409.352 519.833 409.502 L 545.738 409.502 L 545.738 409.228 Z " fill="rgb(255,255,255)"></path><path d=" M 519.833 409.502 C 519.833 409.653 520.009 409.777 520.225 409.777 L 545.738 409.777 L 545.738 409.502 L 519.833 409.502 Z " fill="rgb(191,191,191)"></path><path d=" M 545.738 409.777 L 520.224 409.777 C 520.009 409.777 519.833 409.901 519.833 410.051 L 545.738 410.051 L 545.738 409.777 Z " fill="rgb(255,255,255)"></path><path d=" M 519.833 410.052 C 519.833 410.203 520.009 410.327 520.225 410.327 L 545.738 410.327 L 545.738 410.052 L 519.833 410.052 Z " fill="rgb(191,191,191)"></path><path d=" M 545.738 410.327 L 520.224 410.327 C 520.009 410.327 519.833 410.45 519.833 410.601 L 545.738 410.601 L 545.738 410.327 Z " fill="rgb(255,255,255)"></path><path d=" M 519.833 410.601 C 519.833 410.752 520.009 410.875 520.225 410.875 L 545.738 410.875 L 545.738 410.601 L 519.833 410.601 Z " fill="rgb(191,191,191)"></path><path d=" M 545.738 410.876 L 520.224 410.876 C 520.009 410.876 519.833 411 519.833 411.15 L 545.738 411.15 L 545.738 410.876 Z " fill="rgb(255,255,255)"></path><path d=" M 519.833 411.15 C 519.833 411.301 520.009 411.425 520.225 411.425 L 545.738 411.425 L 545.738 411.15 L 519.833 411.15 Z " fill="rgb(191,191,191)"></path><path d=" M 545.738 411.425 L 520.224 411.425 C 520.009 411.425 519.833 411.549 519.833 411.699 L 545.738 411.699 L 545.738 411.425 Z " fill="rgb(255,255,255)"></path><path d=" M 519.833 411.699 C 519.833 411.85 520.009 411.973 520.225 411.973 L 545.738 411.973 L 545.738 411.699 L 519.833 411.699 Z " fill="rgb(191,191,191)"></path><path d=" M 545.738 411.974 L 520.224 411.974 C 520.009 411.974 519.833 412.098 519.833 412.249 L 545.738 412.249 L 545.738 411.974 Z " fill="rgb(255,255,255)"></path><path d=" M 519.833 412.249 C 519.833 412.4 520.009 412.524 520.225 412.524 L 545.738 412.524 L 545.738 412.249 L 519.833 412.249 Z " fill="rgb(191,191,191)"></path><path d=" M 545.738 412.523 L 520.224 412.523 C 520.009 412.523 519.833 412.647 519.833 412.797 L 545.738 412.797 L 545.738 412.523 Z " fill="rgb(255,255,255)"></path><path d=" M 519.833 412.798 C 519.833 412.949 520.009 413.072 520.225 413.072 L 545.738 413.072 L 545.738 412.798 L 519.833 412.798 Z " fill="rgb(191,191,191)"></path><path d=" M 545.738 413.072 L 520.224 413.072 C 520.009 413.072 519.833 413.197 519.833 413.347 L 545.738 413.347 L 545.738 413.072 Z " fill="rgb(255,255,255)"></path><path d=" M 519.833 413.347 C 519.833 413.498 520.009 413.621 520.225 413.621 L 545.738 413.621 L 545.738 413.347 L 519.833 413.347 Z " fill="rgb(191,191,191)"></path><path d=" M 545.738 413.622 L 520.224 413.622 C 520.009 413.622 519.833 413.746 519.833 413.896 L 545.738 413.896 L 545.738 413.622 Z " fill="rgb(255,255,255)"></path><path d=" M 519.833 413.896 C 519.833 414.047 520.009 414.171 520.225 414.171 L 545.738 414.171 L 545.738 413.896 L 519.833 413.896 Z " fill="rgb(191,191,191)"></path><path d=" M 545.738 414.171 L 520.224 414.171 C 520.009 414.171 519.833 414.294 519.833 414.445 L 545.738 414.445 L 545.738 414.171 Z " fill="rgb(255,255,255)"></path><path d=" M 519.833 414.445 C 519.833 414.596 520.009 414.719 520.225 414.719 L 545.738 414.719 L 545.738 414.445 L 519.833 414.445 Z " fill="rgb(191,191,191)"></path><path d=" M 519.724 414.394 C 519.724 414.609 519.572 414.785 519.386 414.785 C 519.201 414.785 519.048 414.609 519.048 414.394 L 519.048 408.521 C 519.048 408.306 519.201 408.13 519.386 408.13 C 519.572 408.13 519.724 408.306 519.724 408.521 L 519.724 414.394 Z " fill="rgb(217,152,61)"></path><path d=" M 540.926 423.899 L 532.981 420.11 L 525.035 423.899 L 525.035 410.615 L 540.926 410.615 L 540.926 423.899 Z " fill="rgb(217,152,61)"></path><path d=" M 525.767 410.615 L 540.194 410.615 L 540.194 422.74 L 532.981 419.301 L 525.767 422.74 L 525.767 410.615 Z " fill="rgb(255,226,79)"></path><clipPath id="_clipPath_hgRRoLDOrjGfyNCGUMg2yXx3ZExU0bvp"><path d=" M 525.766 410.615 L 525.766 422.74 L 532.981 419.3 L 540.193 422.74 L 540.193 410.615 L 525.766 410.615 Z " fill="rgb(255,255,255)"></path></clipPath><g clip-path="url(#_clipPath_hgRRoLDOrjGfyNCGUMg2yXx3ZExU0bvp)"><path d=" M 541.181 422.998 L 524.753 422.998 L 524.753 418.75 L 541.181 418.75 L 541.181 422.998 Z " fill="rgb(225,46,34)"></path><path d=" M 541.181 418.75 L 524.753 418.75 L 524.753 414.502 L 541.181 414.502 L 541.181 418.75 Z " fill="rgb(35,43,121)"></path><path d=" M 541.181 414.503 L 524.753 414.503 L 524.753 410.255 L 541.181 410.255 L 541.181 414.503 Z " fill="rgb(255,255,255)"></path></g></g></g></svg> 